<svg xmlns="http://www.w3.org/2000/svg" aria-hidden="true" style="position:absolute;width:0;height:0;overflow:hidden">
  <defs>
    <symbol id="icon-instagram-2" viewBox="0 0 32 32">
      <path fill="#e5e5e5" d="M0 0h32v32H0V0z" style="fill:var(--color1, #e5e5e5)"/>
      <path fill="#fff" d="M-368-3472h2880v6936H-368v-6936z" style="fill:var(--color2, #fff)"/>
      <path fill="#f4f4fd" d="M-368-1200h2880V360H-368v-1560z" style="fill:var(--color3, #f4f4fd)"/>
      <path fill="#fff" d="M-56-736h528v848a8 8 0 0 1-8 8H-48a8 8 0 0 1-8-8v-848z" style="fill:var(--color2, #fff)"/>
      <path fill="#" d="M56 16c0 11.046-4.477 21.046-11.716 28.284S27.045 56 16 56C4.954 56-5.046 51.523-12.284 44.284S-24 27.045-24 16c0-11.046 4.477-21.046 11.716-28.284S4.955-24 16-24c11.046 0 21.046 4.477 28.284 11.716S56 4.955 56 16z" style=""/>
      <path fill="#f4f4fd" d="M31.969 9.408c-.075-1.7-.35-2.869-.744-3.882a7.803 7.803 0 0 0-1.85-2.838A7.867 7.867 0 0 0 26.543.844C25.524.45 24.361.175 22.661.1 20.948.019 20.404 0 16.06 0s-4.888.019-6.595.094c-1.7.075-2.869.35-3.882.744a7.803 7.803 0 0 0-2.838 1.85A7.867 7.867 0 0 0 .901 5.52C.507 6.539.232 7.702.157 9.402c-.081 1.713-.1 2.257-.1 6.601s.019 4.888.094 6.595c.075 1.7.35 2.869.744 3.882a7.895 7.895 0 0 0 1.85 2.838 7.867 7.867 0 0 0 2.832 1.844c1.019.394 2.182.669 3.882.744 1.706.075 2.25.094 6.595.094s4.888-.019 6.595-.094c1.7-.075 2.869-.35 3.882-.744a8.181 8.181 0 0 0 4.682-4.682c.394-1.019.669-2.182.744-3.882.075-1.707.094-2.25.094-6.595s-.006-4.888-.081-6.595zm-2.882 13.065c-.069 1.563-.331 2.407-.55 2.969a5.31 5.31 0 0 1-3.038 3.038c-.563.219-1.413.481-2.969.55-1.688.075-2.194.094-6.464.094s-4.782-.019-6.464-.094c-1.563-.069-2.407-.331-2.969-.55a4.926 4.926 0 0 1-1.838-1.194 4.974 4.974 0 0 1-1.194-1.838c-.219-.563-.481-1.413-.55-2.969-.075-1.688-.094-2.194-.094-6.464s.019-4.782.094-6.464c.069-1.563.331-2.407.55-2.969a4.868 4.868 0 0 1 1.2-1.838A4.974 4.974 0 0 1 6.639 3.55c.563-.219 1.413-.481 2.969-.55 1.688-.075 2.194-.094 6.464-.094 4.276 0 4.782.019 6.464.094 1.563.069 2.407.331 2.969.55a4.914 4.914 0 0 1 1.838 1.194 4.974 4.974 0 0 1 1.194 1.838c.219.563.481 1.413.55 2.969.075 1.688.094 2.194.094 6.464s-.019 4.77-.094 6.458z" style="fill:var(--color3, #f4f4fd)"/>
      <path fill="#f4f4fd" d="M16.059 7.783c-4.538 0-8.22 3.682-8.22 8.22s3.682 8.22 8.22 8.22 8.22-3.682 8.22-8.22-3.682-8.22-8.22-8.22zm0 13.552a5.333 5.333 0 0 1 0-10.664 5.333 5.333 0 0 1 0 10.664zM26.524 7.458a1.919 1.919 0 1 1-3.838 0 1.919 1.919 0 0 1 3.838 0z" style="fill:var(--color3, #f4f4fd)"/>
    </symbol>
    <symbol id="icon-linkedin-1" viewBox="0 0 32 32">
      <path fill="#e5e5e5" d="M0 0h32v32H0V0z" style="fill:var(--color1, #e5e5e5)"/>
      <path fill="#fff" d="M-752-3472h2880v6936H-752v-6936z" style="fill:var(--color2, #fff)"/>
      <path fill="#f4f4fd" d="M-752-1200h2880V360H-752v-1560z" style="fill:var(--color3, #f4f4fd)"/>
      <path fill="#fff" d="M-440-736H88v848a8 8 0 0 1-8 8h-512a8 8 0 0 1-8-8v-848z" style="fill:var(--color2, #fff)"/>
      <path fill="" d="M56 16c0 11.046-4.477 21.046-11.716 28.284S27.045 56 16 56C4.954 56-5.046 51.523-12.284 44.284S-24 27.045-24 16c0-11.046 4.477-21.046 11.716-28.284S4.955-24 16-24c11.046 0 21.046 4.477 28.284 11.716S56 4.955 56 16z" style=""/>
      <path fill="#f4f4fd" d="M31.992 32v-.001H32V20.263c0-5.741-1.236-10.164-7.948-10.164-3.227 0-5.392 1.771-6.276 3.449h-.093v-2.913h-6.364v21.364h6.627V21.42c0-2.785.528-5.479 3.977-5.479 3.399 0 3.449 3.179 3.449 5.657v10.401h6.62zM.528 10.636h6.635V32H.528V10.636zM3.843 0C1.722 0 0 1.721 0 3.843s1.721 3.879 3.843 3.879c2.121 0 3.843-1.757 3.843-3.879A3.846 3.846 0 0 0 3.843 0z" style="fill:var(--color3, #f4f4fd)"/>
    </symbol>
    <symbol id="icon-twitter-1" viewBox="0 0 32 32">
      <path fill="#e5e5e5" d="M0 0h32v32H0V0z" style="fill:var(--color1, #e5e5e5)"/>
      <path fill="#fff" d="M-496-3472h2880v6936H-496v-6936z" style="fill:var(--color2, #fff)"/>
      <path fill="#f4f4fd" d="M-496-1200h2880V360H-496v-1560z" style="fill:var(--color3, #f4f4fd)"/>
      <path fill="#fff" d="M-184-736h528v848a8 8 0 0 1-8 8h-512a8 8 0 0 1-8-8v-848z" style="fill:var(--color2, #fff)"/>
      <path fill="" d="M56 16c0 11.046-4.477 21.046-11.716 28.284S27.045 56 16 56C4.954 56-5.046 51.523-12.284 44.284S-24 27.045-24 16c0-11.046 4.477-21.046 11.716-28.284S4.955-24 16-24c11.046 0 21.046 4.477 28.284 11.716S56 4.955 56 16z" style=""/>
      <path fill="#f4f4fd" d="M32 6.078c-1.19.522-2.458.868-3.78 1.036a6.523 6.523 0 0 0 2.886-3.626 13.11 13.11 0 0 1-4.16 1.588A6.574 6.574 0 0 0 22.154 3c-3.632 0-6.556 2.948-6.556 6.562 0 .52.044 1.02.152 1.496-5.454-.266-10.28-2.88-13.522-6.862a6.605 6.605 0 0 0-.898 3.316 6.57 6.57 0 0 0 2.914 5.452 6.479 6.479 0 0 1-2.964-.808v.072c0 3.188 2.274 5.836 5.256 6.446a6.548 6.548 0 0 1-1.72.216 5.8 5.8 0 0 1-1.242-.112c.85 2.598 3.262 4.508 6.13 4.57a13.182 13.182 0 0 1-8.134 2.798c-.538 0-1.054-.024-1.57-.09A18.469 18.469 0 0 0 10.064 29c12.072 0 18.672-10 18.672-18.668 0-.29-.01-.57-.024-.848A13.087 13.087 0 0 0 32 6.078z" style="fill:var(--color3, #f4f4fd)"/>
    </symbol>
    <symbol id="icon-facebook-1" viewBox="0 0 32 32">
      <path fill="#e5e5e5" d="M0 0h32v32H0V0z" style="fill:var(--color1, #e5e5e5)"/>
      <path fill="#fff" d="M-624-3472h2880v6936H-624v-6936z" style="fill:var(--color2, #fff)"/>
      <path fill="#f4f4fd" d="M-624-1200h2880V360H-624v-1560z" style="fill:var(--color3, #f4f4fd)"/>
      <path fill="#fff" d="M-312-736h528v848a8 8 0 0 1-8 8h-512a8 8 0 0 1-8-8v-848z" style="fill:var(--color2, #fff)"/>
      <path fill="" d="M56 16c0 11.046-4.477 21.046-11.716 28.284S27.045 56 16 56C4.954 56-5.046 51.523-12.284 44.284S-24 27.045-24 16c0-11.046 4.477-21.046 11.716-28.284S4.955-24 16-24c11.046 0 21.046 4.477 28.284 11.716S56 4.955 56 16z" style=""/>
      <path fill="#f4f4fd" d="M21.329 5.313h2.921V.225C23.746.156 22.013 0 19.994 0c-4.212 0-7.097 2.649-7.097 7.519V12H8.249v5.688h4.648V32h5.699V17.689h4.46l.708-5.688h-5.169V8.082c.001-1.644.444-2.769 2.735-2.769z" style="fill:var(--color3, #f4f4fd)"/>
    </symbol>
    <symbol id="icon-antenna-1" viewBox="0 0 32 32">
      <path fill="#e5e5e5" d="M0 0h32v32H0V0z" style="fill:var(--color1, #e5e5e5)"/>
      <path fill="#fff" d="M-128-408h720v1734h-720V-408z" style="fill:var(--color2, #fff)"/>
      <path fill="#f4f4fd" stroke="#8e8f99" stroke-width=".5" d="M-48-11.75H80c.966 0 1.75.784 1.75 1.75v52A1.75 1.75 0 0 1 80 43.75H-48A1.75 1.75 0 0 1-49.75 42v-52c0-.966.783-1.75 1.75-1.75z" style="fill:var(--color3, #f4f4fd);stroke:var(--color5, #8e8f99)"/>
      <path fill="#2e2f42" d="m30.773 22.098-8.443-8.505.937-4.615c.242.094.499.144.758.146h.006a2.159 2.159 0 1 0-2.008-1.435l-4.96.605L8.972.161a.534.534 0 0 0-.377-.16.532.532 0 0 0-.373.155L6.709 1.66a.534.534 0 0 0 0 .754l.814.826a14.943 14.943 0 0 0 2.519 17.663.513.513 0 0 0 .146.098c-.034.18-.051.364-.052.547v6.187h-6.4a2.67 2.67 0 0 0-2.667 2.667v1.067c0 .295.239.533.533.533h24.533a.533.533 0 0 0 .533-.533v-1.067a2.67 2.67 0 0 0-2.667-2.667h-6.4v-2.742a15.09 15.09 0 0 0 3.049.32 14.854 14.854 0 0 0 7.04-1.783l.818.823a.534.534 0 0 0 .377.16.532.532 0 0 0 .373-.155l1.513-1.504a.534.534 0 0 0 0-.754zM23.28 6.233a1.067 1.067 0 1 1 .753 1.822h-.003a1.067 1.067 0 0 1-.747-1.823h-.002zm-1.256 3.505-.598 2.946-1.175-1.182 1.774-1.763zm-.605-.902-1.92 1.909-1.485-1.493 3.405-.415zM24.004 28.8a1.6 1.6 0 0 1 1.6 1.6v.533H2.137V30.4a1.6 1.6 0 0 1 1.6-1.6h20.267zm-7.467-2.133v1.067h-5.333v-1.067h5.333zM11.204 25.6v-4.053c0-1.294 1.196-2.347 2.667-2.347s2.667 1.053 2.667 2.347V25.6h-5.333zm6.4-1.696v-2.357c0-1.882-1.675-3.413-3.733-3.413a3.8 3.8 0 0 0-3.281 1.786A13.87 13.87 0 0 1 8.311 4.033l18.602 18.708a13.818 13.818 0 0 1-9.309 1.163zm11.289-.684L7.836 2.039l.755-.752 7.935 7.98c.004 0 .006.007.01.01l13.115 13.191-.757.752z" style="fill:var(--color6, #2e2f42)"/>
      <path fill="" d="M13.876 20.267h-.005a1.6 1.6 0 1 0-.004 3.2h.005a1.6 1.6 0 1 0 .004-3.2zm.373 1.978a.534.534 0 0 1-.752-.756.534.534 0 0 1 .373-.155.534.534 0 0 1 .374.911h.005z" style=""/>
    </symbol>
    <symbol id="icon-astronaut-1" viewBox="0 0 32 32">
      <path fill="#e5e5e5" d="M0 0h32v32H0V0z" style="fill:var(--color1, #e5e5e5)"/>
      <path fill="#fff" d="M-560-408h720v1734h-720V-408z" style="fill:var(--color2, #fff)"/>
      <path fill="#f4f4fd" stroke="#8e8f99" stroke-width=".5" d="M-48-11.75H80c.966 0 1.75.784 1.75 1.75v52A1.75 1.75 0 0 1 80 43.75H-48A1.75 1.75 0 0 1-49.75 42v-52c0-.966.783-1.75 1.75-1.75z" style="fill:var(--color3, #f4f4fd);stroke:var(--color5, #8e8f99)"/>
      <path fill="" d="M31.974 4.524a.534.534 0 0 0-.43-.363l-1.91-.278-.855-1.731c-.179-.365-.777-.365-.956 0l-.855 1.731-1.91.278a.535.535 0 0 0-.296.91l1.383 1.348-.326 1.903c-.034.2.048.402.212.522a.53.53 0 0 0 .562.04l1.709-.899 1.709.899a.536.536 0 0 0 .775-.563l-.326-1.903 1.383-1.348a.536.536 0 0 0 .135-.547zm-2.463 1.327a.534.534 0 0 0-.153.472l.191 1.114-1-.526a.533.533 0 0 0-.498 0l-1.001.526.191-1.114a.534.534 0 0 0-.153-.472l-.81-.789 1.119-.163a.532.532 0 0 0 .402-.292l.5-1.013.5 1.013a.535.535 0 0 0 .402.292l1.119.163-.809.789zM26.133 20.522h-1.067v1.067h1.067v-1.067zM26.133 22.656h-1.067v1.067h1.067v-1.067zM27.2 21.589h-1.067v1.067H27.2v-1.067zM25.067 21.589H24v1.067h1.067v-1.067zM22.4 26.389h-1.067v1.067H22.4v-1.067zM22.4 28.522h-1.067v1.067H22.4v-1.067zM23.467 27.456H22.4v1.067h1.067v-1.067zM21.333 27.456h-1.067v1.067h1.067v-1.067zM16 24.256h-1.067v1.067H16v-1.067zM16 26.389h-1.067v1.067H16v-1.067zM17.067 25.322H16v1.067h1.067v-1.067zM14.933 25.322h-1.067v1.067h1.067v-1.067zM5.867 6.122H4.8v1.067h1.067V6.122zM5.867 8.255H4.8v1.067h1.067V8.255z" style=""/>
      <path fill="" d="M6.933 7.189H5.866v1.067h1.067V7.189zM4.8 7.189H3.733v1.067H4.8V7.189z" style=""/>
      <path fill="#2e2f42" d="M24.715 14.159a1.775 1.775 0 0 0-1.188-.705 1.778 1.778 0 0 0-1.34.352l-1.252.96-1.898 1.417-1.358-.541c2.421-1.086 4.114-3.508 4.114-6.32 0-3.823-3.123-6.933-6.961-6.933s-6.961 3.11-6.961 6.933a6.86 6.86 0 0 0 1.12 3.758l-2.764-.024h-.005c-.009 0-.015.004-.023.005a.515.515 0 0 0-.155.031l-.038.013c-.006.003-.013.003-.019.006l-3.233 1.596-.001.001-1.893.911a.397.397 0 0 0-.063.035 1.779 1.779 0 0 0-.598 2.295c.22.429.595.745 1.056.889a1.776 1.776 0 0 0 1.378-.128l1.388-.738 2.264-1.169 1.357-.008L2.2 22.211l-.002.001-1.339 1.333c-.316.315-.49.732-.49 1.178s.174.863.49 1.179c.325.323.752.485 1.179.485s.854-.162 1.18-.485l1.314-1.309 1.741-1.3.901.897-1.762 1.754-.002.001-1.339 1.333c-.316.315-.49.732-.49 1.178s.174.863.49 1.179c.325.323.753.485 1.18.485s.855-.162 1.18-.485l3.482-3.467.001-.002 1.01-1-.004-.004c.006-.006.015-.009.022-.015l5.166-5.658 3.471.494a.52.52 0 0 0 .262-.033c.018-.006.033-.015.05-.023.019-.01.039-.015.058-.027l3.213-2.133c.012-.008.018-.021.029-.029.013-.01.029-.014.041-.026l1.271-1.191c.662-.62.753-1.635.212-2.362zM2.13 17.77a.714.714 0 0 1-.558.052.717.717 0 0 1-.213-1.26l1.314-.632.449 1.313-.992.527zm3.498-1.828-1.548.8-.439-1.283 2.027-1.001-.04 1.484zm15.099-6.62a5.79 5.79 0 0 1-.599 2.559l-4.181-1.899a1.863 1.863 0 0 0-.788-1.388l1.464-4.86c2.378.756 4.105 2.974 4.105 5.588zm-11.789 0c0-3.235 2.644-5.867 5.894-5.867.253 0 .5.021.745.052l-1.432 4.754c-.019-.001-.037-.006-.057-.006-1.033 0-1.873.837-1.873 1.867s.84 1.867 1.873 1.867c.694 0 1.294-.383 1.618-.945l3.862 1.755a5.894 5.894 0 0 1-4.737 2.39c-3.25 0-5.894-2.632-5.894-5.867zm5.956.8c0 .441-.362.8-.806.8s-.806-.359-.806-.8c0-.441.362-.8.806-.8s.806.359.806.8zM2.465 25.146a.608.608 0 0 1-.854.001.592.592 0 0 1 0-.844l.962-.958.851.848-.959.955zm3.214 3.734a.608.608 0 0 1-.855.001.592.592 0 0 1 0-.844l.963-.959.852.848-.96.955zm3.481-3.469-.002.001-1.765 1.76-.852-.848 1.763-1.755.002-.001c.04-.04.065-.088.09-.135.007-.014.02-.026.026-.04.017-.041.019-.085.026-.129.003-.025.014-.047.014-.073 0-.036-.013-.07-.02-.106-.006-.032-.006-.065-.019-.095a.55.55 0 0 0-.091-.138c-.01-.012-.014-.027-.025-.038h-.001l-.001-.002-1.607-1.6c-.017-.017-.039-.024-.058-.038a.507.507 0 0 0-.087-.058.515.515 0 0 0-.093-.033.507.507 0 0 0-.103-.02.5.5 0 0 0-.095.005.53.53 0 0 0-.104.02.477.477 0 0 0-.094.045c-.02.011-.042.015-.061.029L4.23 23.486l-.901-.897 2.399-2.386 4.361 4.289-.928.919zm6.819-7.017c-.015-.002-.03.004-.045.003a.556.556 0 0 0-.3.075.492.492 0 0 0-.083.061c-.013.011-.028.017-.04.029l-4.698 5.146-4.328-4.257 2.833-2.818a.534.534 0 0 0-.379-.911v-.001l-2.219.013.028-1.607 3.104.027a6.947 6.947 0 0 0 4.981 2.101c.437 0 .864-.045 1.279-.123.04.032.079.065.13.085l2.41.96.152.758.178.885-3.003-.427zm4.041.178-.313-1.558 1.446-1.08.947 1.257-2.08 1.381zm3.754-2.831-.838.785-.931-1.236.831-.637a.735.735 0 0 1 .543-.143.718.718 0 0 1 .48.284.713.713 0 0 1-.085.947z" style="fill:var(--color6, #2e2f42)"/>
      <path fill="#2e2f42" d="m13.602 18.544-2.143-2.133a.534.534 0 0 0-.753 0l-2.142 2.133a.537.537 0 0 0 0 .756l2.142 2.133a.536.536 0 0 0 .753 0l2.143-2.133a.535.535 0 0 0 0-.756zm-2.519 1.759-1.387-1.381 1.387-1.381 1.387 1.381-1.387 1.381zM17.164 5.071l-.258 1.036c.071.018 1.738.452 1.738 2.149h1.067c0-2.017-1.666-2.965-2.547-3.185zM19.711 9.322h-1.067v1.067h1.067V9.322z" style="fill:var(--color6, #2e2f42)"/>
    </symbol>
    <symbol id="icon-clock-1" viewBox="0 0 32 32">
      <path fill="#e5e5e5" d="M0 0h32v32H0V0z" style="fill:var(--color1, #e5e5e5)"/>
      <path fill="#fff" d="M-272-408h720v1734h-720V-408z" style="fill:var(--color2, #fff)"/>
      <path fill="#f4f4fd" stroke="#8e8f99" stroke-width=".5" d="M-48-11.75H80c.966 0 1.75.784 1.75 1.75v52A1.75 1.75 0 0 1 80 43.75H-48A1.75 1.75 0 0 1-49.75 42v-52c0-.966.783-1.75 1.75-1.75z" style="fill:var(--color3, #f4f4fd);stroke:var(--color5, #8e8f99)"/>
      <path fill="#2e2f42" d="M31.297 15.301C31.295 6.849 24.442-.002 15.989 0S.686 6.855.688 15.308a15.304 15.304 0 0 0 10.649 14.576.662.662 0 0 0 .529-.065.637.637 0 0 0 .283-.356l3.865-12.25a1.912 1.912 0 1 0-.84-3.635l-5.106-5.107a.637.637 0 0 0-.902.902l5.103 5.109a1.876 1.876 0 0 0 .536 2.309l-3.683 11.673C3.844 25.783.118 17.71 2.799 10.432S13.553-.572 20.831 2.109c7.278 2.681 11.004 10.754 8.323 18.032a14.042 14.042 0 0 1-7.462 7.973l-.398-1.874a.637.637 0 0 0-1.049-.344l-3.837 3.426a.637.637 0 0 0 .231 1.084l4.899 1.564a.638.638 0 0 0 .819-.74l-.391-1.839a15.255 15.255 0 0 0 9.329-14.089zm-15.305-.637a.638.638 0 1 1 0 1.277.638.638 0 0 1 0-1.277zm2.101 14.864 2.184-1.948.603 2.84-2.787-.892z" style="fill:var(--color6, #2e2f42)"/>
      <path fill="#4d5ae5" d="M15.354 3.185V4.46a.638.638 0 1 0 1.276 0V3.185a.638.638 0 0 0-1.276 0zM3.876 14.664a.638.638 0 0 0 0 1.276h1.275a.638.638 0 1 0 0-1.276H3.876zM28.108 15.939a.638.638 0 1 0 0-1.276h-1.275a.638.638 0 0 0 0 1.276h1.275z" style="fill:var(--color4, #4d5ae5)"/>
    </symbol>
    <symbol id="icon-diagram-1" viewBox="0 0 32 32">
      <path fill="#e5e5e5" d="M0 0h32v32H0V0z" style="fill:var(--color1, #e5e5e5)"/>
      <path fill="#fff" d="M-416-408h720v1734h-720V-408z" style="fill:var(--color2, #fff)"/>
      <path fill="#f4f4fd" stroke="#8e8f99" stroke-width=".5" d="M-48-11.75H80c.966 0 1.75.784 1.75 1.75v52A1.75 1.75 0 0 1 80 43.75H-48A1.75 1.75 0 0 1-49.75 42v-52c0-.966.783-1.75 1.75-1.75z" style="fill:var(--color3, #f4f4fd);stroke:var(--color5, #8e8f99)"/>
      <path fill="#4d5ae5" d="M14.925 14.965h1.066v4.798h-1.066v-4.797zM19.19 17.097h1.066v2.665H19.19v-2.665zM10.661 18.696h1.066v1.066h-1.066v-1.066zM7.463 18.163h1.066v1.599H7.463v-1.599z" style="fill:var(--color4, #4d5ae5)"/>
      <path fill="#2e2f42" d="M1.599 28.291h25.587a1.6 1.6 0 0 0 1.599-1.599V24.56a1.6 1.6 0 0 0-1.599-1.599h-.533V9.668L29.681 6.8a1.608 1.608 0 1 0-.746-.763L26.654 8.2V6.97a1.6 1.6 0 0 0-1.599-1.599H3.733A1.6 1.6 0 0 0 2.134 6.97v15.992h-.533a1.6 1.6 0 0 0-1.599 1.599v2.132a1.6 1.6 0 0 0 1.599 1.599zM30.384 4.837a.533.533 0 1 1 0 1.067.533.533 0 0 1 0-1.067zM3.198 6.969c0-.294.239-.533.533-.533h21.322c.294 0 .533.239.533.533v2.239l-1.066 1.013V8.035a.533.533 0 0 0-.533-.533H4.797a.533.533 0 0 0-.533.533v13.326c0 .294.239.533.533.533h19.19a.533.533 0 0 0 .533-.533v-9.674l1.066-1.01v12.284H3.198V6.969zm4.798 6.93a1.598 1.598 0 1 0 1.107 2.749l1.853.93a.532.532 0 0 0 .636-.123l3.939-4.431 3.872 2.901a.533.533 0 0 0 .686-.039l3.365-3.188v8.131H5.33V8.569h18.124v2.66l-3.771 3.572-3.904-2.927a.533.533 0 0 0-.718.072l-3.993 4.493-1.493-.746c.011-.064.018-.129.02-.193a1.6 1.6 0 0 0-1.599-1.599zm.533 1.599a.533.533 0 1 1-1.067 0 .533.533 0 0 1 1.067 0zm3.198 8.529h5.331v.533a.533.533 0 0 1-.533.533h-4.264a.533.533 0 0 1-.533-.533v-.533zm-10.661.533c0-.294.239-.533.533-.533h9.062v.533a1.6 1.6 0 0 0 1.599 1.599h4.264a1.6 1.6 0 0 0 1.599-1.599v-.533h9.062c.294 0 .533.239.533.533v2.132a.533.533 0 0 1-.533.533H1.598a.533.533 0 0 1-.533-.533V24.56z" style="fill:var(--color6, #2e2f42)"/>
    </symbol>
    <symbol id="icon-close-black-18dp-2-1-1" viewBox="0 0 32 32">
<path fill="#e5e5e5" style="fill: var(--color1, #e5e5e5)" d="M0 0h32v32h-32z"></path>
<path fill="#fff" style="fill: var(--color2, #fff)" d="M-2792-7640h4756c53.019 0 96 42.981 96 96v8232c0 53.019-42.981 96-96 96h-4756c-53.019 0-96-42.981-96-96v-8232c0-53.019 42.981-96 96-96z"></path>
<path fill="none" stroke="#9747ff" style="stroke: var(--color3, #9747ff)" stroke-linejoin="miter" stroke-linecap="butt" stroke-miterlimit="4" stroke-width="4" d="M-92-110h216c9.941 0 18 8.059 18 18v392c0 9.941-8.059 18-18 18h-216c-9.941 0-18-8.059-18-18v-392c0-9.941 8.059-18 18-18z"></path>
<path fill="#e7e9fc" style="fill: var(--color4, #e7e9fc)" d="M64 16c0 26.51-21.49 48-48 48s-48-21.49-48-48c0-26.51 21.49-48 48-48s48 21.49 48 48z"></path>
<path fill="none" stroke="#000" style="stroke: var(--color5, #000)" stroke-linejoin="miter" stroke-linecap="butt" stroke-miterlimit="4" stroke-width="4" d="M62 16c0 25.405-20.595 46-46 46s-46-20.595-46-46c0-25.405 20.595-46 46-46s46 20.595 46 46z"></path>
<path fill="#2e2f42" style="fill: var(--color6, #2e2f42)" d="M32 3.224l-3.224-3.224-12.776 12.776-12.776-12.776-3.224 3.224 12.776 12.776-12.776 12.776 3.224 3.224 12.776-12.776 12.776 12.776 3.224-3.224-12.776-12.776 12.776-12.776z"></path>
</symbol>
<symbol id="icon-person-black-18dp-1-1" viewBox="0 0 32 32">
<path fill="#e5e5e5" style="fill: var(--color1, #e5e5e5)" d="M0 0h32v32h-32z"></path>
<path fill="#fff" style="fill: var(--color2, #fff)" d="M-234.667-3432.889h2113.778c23.564 0 42.667 19.103 42.667 42.667v3658.667c0 23.564-19.103 42.667-42.667 42.667h-2113.778c-23.564 0-42.667-19.103-42.667-42.667v-3658.667c0-23.564 19.103-42.667 42.667-42.667z"></path>
<path fill="none" stroke="#9747ff" style="stroke: var(--color3, #9747ff)" stroke-linejoin="miter" stroke-linecap="butt" stroke-miterlimit="4" stroke-width="1.7778" d="M-55.111-86.222h693.333c4.418 0 8 3.582 8 8v295.111c0 4.418-3.582 8-8 8h-693.333c-4.418 0-8-3.582-8-8v-295.111c0-4.418 3.582-8 8-8z"></path>
<path fill="none" stroke="#2e2f42" style="stroke: var(--color4, #2e2f42)" stroke-linejoin="miter" stroke-linecap="butt" stroke-miterlimit="4" stroke-width="1.7778" d="M-21.333-18.667h625.778c3.436 0 6.222 2.786 6.222 6.222v56.889c0 3.436-2.786 6.222-6.222 6.222h-625.778c-3.436 0-6.222-2.786-6.222-6.222v-56.889c0-3.436 2.786-6.222 6.222-6.222z"></path>
<path fill="#2e2f42" style="fill: var(--color4, #2e2f42)" d="M16 16c2.946 0 5.333-2.388 5.333-5.333s-2.388-5.333-5.333-5.333v0c-2.946 0-5.333 2.388-5.333 5.333s2.388 5.333 5.333 5.333v0zM16 18.667c-3.561 0-10.667 1.787-10.667 5.333v1.333c0 0.732 0.599 1.333 1.333 1.333h18.667c0.732 0 1.333-0.601 1.333-1.333v-1.333c0-3.547-7.108-5.333-10.667-5.333z"></path>
</symbol>
<symbol id="icon-phone-black-18dp-1-1" viewBox="0 0 24 32">
<path fill="#e5e5e5" style="fill: var(--color1, #e5e5e5)" d="M0 0h24v32h-24z"></path>
<path fill="#fff" style="fill: var(--color2, #fff)" d="M-741.333-378.667h1920v896h-1920z"></path>
<path fill="#000" style="fill: var(--color3, #000)" d="M-741.333-282.667h1920v800h-1920z"></path>
<path fill="#2e2f42" style="fill: var(--color4, #2e2f42)" opacity="0.7" d="M-741.333-282.667h1920v800h-1920z"></path>
<path fill="#fff" style="fill: var(--color2, #fff)" d="M-70.289 35.469v8.531h-28.255v-8.531h28.255zM-94.971-9.084v53.084h-10.939v-53.084h10.939zM-73.971 12.536v8.313h-24.573v-8.313h24.573zM-70.325-9.084v8.568h-28.219v-8.567h28.219zM-50.348 44h-10.573v-42.947c0-2.991 0.584-5.507 1.751-7.548 1.166-2.029 2.874-3.631 4.927-4.637l0.068-0.030c2.163-1.069 4.728-1.604 7.693-1.604 0.972 0 1.907 0.072 2.807 0.219 0.9 0.121 1.773 0.28 2.625 0.473l-0.109 7.912c-0.417-0.114-0.913-0.205-1.422-0.253l-0.037-0.003c-0.511-0.048-1.107-0.072-1.787-0.072-1.264 0-2.345 0.219-3.244 0.656-0.858 0.4-1.547 1.042-1.994 1.838l-0.011 0.022c-0.463 0.827-0.693 1.835-0.693 3.027v42.947zM-42.472 4.552v7.437h-24.319v-7.437h24.319zM-22.093 44h-10.573v-42.947c0-2.991 0.583-5.507 1.749-7.548 1.166-2.029 2.874-3.631 4.927-4.637l0.068-0.030c2.164-1.069 4.728-1.604 7.693-1.604 0.973 0 1.908 0.072 2.807 0.219 0.9 0.121 1.775 0.28 2.627 0.473l-0.111 7.913c-0.417-0.114-0.913-0.205-1.422-0.253l-0.037-0.003c-0.509-0.048-1.105-0.072-1.787-0.072-1.263 0-2.345 0.219-3.244 0.656-0.858 0.4-1.547 1.042-1.994 1.838l-0.011 0.022c-0.461 0.827-0.693 1.835-0.693 3.027v42.945zM-14.219 4.552v7.437h-24.319v-7.437h24.319zM10.061 44.729c-3.063 0-5.809-0.487-8.24-1.459-2.431-0.996-4.496-2.369-6.199-4.12-1.631-1.701-2.94-3.724-3.821-5.964l-0.043-0.124c-0.899-2.333-1.349-4.813-1.349-7.437v-1.459c0-2.989 0.427-5.724 1.276-8.203 0.851-2.48 2.067-4.631 3.647-6.453 1.578-1.788 3.526-3.211 5.729-4.154l0.104-0.040c2.284-0.996 4.861-1.493 7.729-1.493 2.795 0 5.273 0.461 7.437 1.384 2.163 0.924 3.973 2.236 5.432 3.937 1.483 1.701 2.6 3.744 3.355 6.125 0.753 2.357 1.129 4.983 1.129 7.875v4.376h-31.353v-7h21.036v-0.803c0-1.459-0.267-2.759-0.803-3.901-0.5-1.154-1.303-2.098-2.31-2.756l-0.024-0.014c-1.044-0.68-2.381-1.020-4.009-1.020-1.387 0-2.577 0.303-3.573 0.911s-1.811 1.459-2.443 2.552c-0.608 1.093-1.069 2.383-1.387 3.865-0.289 1.457-0.436 3.061-0.436 4.812v1.459c0 1.58 0.219 3.037 0.656 4.375 0.461 1.337 1.107 2.492 1.933 3.464 0.833 0.951 1.853 1.714 3.006 2.237l0.055 0.023c1.215 0.535 2.588 0.803 4.12 0.803 1.896 0 3.657-0.365 5.287-1.093 1.653-0.755 3.075-1.884 4.265-3.392l5.104 5.543c-0.827 1.191-1.956 2.333-3.391 3.427-1.409 1.093-3.111 1.993-5.104 2.697-1.993 0.68-4.267 1.021-6.817 1.021zM50.017 36.527c1.288 0 2.431-0.244 3.427-0.729 0.97-0.489 1.761-1.209 2.319-2.091l0.014-0.024c0.584-0.924 0.888-2.005 0.912-3.245h9.88c-0.024 2.771-0.765 5.237-2.224 7.4-1.457 2.14-3.413 3.829-5.869 5.069-2.455 1.215-5.201 1.823-8.24 1.823-3.063 0-5.736-0.511-8.020-1.532-2.261-1.020-4.144-2.431-5.652-4.228-1.507-1.824-2.636-3.939-3.389-6.344-0.755-2.431-1.131-5.032-1.131-7.803v-1.057c0-2.795 0.376-5.396 1.131-7.801 0.753-2.431 1.883-4.547 3.389-6.344 1.507-1.823 3.391-3.245 5.652-4.267 2.26-1.020 4.909-1.531 7.947-1.531 3.233 0 6.065 0.62 8.496 1.86 2.453 1.24 4.375 3.013 5.76 5.323 1.409 2.284 2.127 4.995 2.151 8.131h-9.88c-0.024-1.313-0.304-2.504-0.839-3.573-0.507-1.064-1.281-1.931-2.235-2.537l-0.025-0.015c-0.973-0.656-2.175-0.984-3.609-0.984-1.531 0-2.783 0.328-3.755 0.984-0.973 0.632-1.727 1.507-2.261 2.625-0.533 1.093-0.911 2.345-1.129 3.755-0.187 1.288-0.293 2.775-0.293 4.287 0 0.031 0 0.061 0 0.092v-0.005 1.057c0 1.532 0.099 3.003 0.293 4.412 0.193 1.409 0.559 2.661 1.093 3.755 0.56 1.093 1.324 1.957 2.296 2.589 0.973 0.632 2.237 0.947 3.792 0.947zM93.475 4.553v7.436h-22.969v-7.437h22.969zM76.193-5.184h10.5v37.297c0 1.143 0.147 2.017 0.437 2.625 0.293 0.581 0.777 1.030 1.369 1.27l0.018 0.006c0.607 0.219 1.373 0.328 2.296 0.328 0.656 0 1.24-0.024 1.749-0.073 0.535-0.073 0.985-0.147 1.349-0.219l0.036 7.729c-0.899 0.292-1.871 0.523-2.916 0.693-1.045 0.169-2.2 0.253-3.464 0.253-2.309 0-4.327-0.376-6.052-1.129-1.701-0.777-3.013-2.017-3.937-3.719s-1.385-3.937-1.385-6.708v-38.353zM112.031 4.551v39.449h-10.537v-39.448h10.536zM100.837-5.729c0-1.533 0.535-2.796 1.604-3.793 1.069-0.996 2.504-1.493 4.303-1.493 1.773 0 3.196 0.497 4.267 1.493 1.093 0.997 1.64 2.261 1.64 3.792 0 1.532-0.547 2.795-1.64 3.792-1.071 0.996-2.493 1.495-4.267 1.495-1.799 0-3.233-0.499-4.303-1.495-1.069-0.997-1.604-2.26-1.604-3.792zM135.617 36.343l8.751-31.792h10.973l-13.307 39.449h-6.636l0.219-7.656zM129.601 4.552l8.787 31.828 0.183 7.62h-6.672l-13.307-39.448h11.008zM179.184 44.729c-3.063 0-5.809-0.487-8.24-1.459-2.431-0.996-4.496-2.369-6.197-4.12-1.631-1.701-2.941-3.725-3.822-5.964l-0.043-0.124c-0.899-2.333-1.348-4.813-1.348-7.437v-1.459c0-2.989 0.425-5.724 1.276-8.203 0.851-2.48 2.065-4.631 3.645-6.453 1.578-1.788 3.526-3.211 5.729-4.154l0.104-0.040c2.284-0.996 4.861-1.493 7.729-1.493 2.795 0 5.275 0.461 7.437 1.384 2.163 0.924 3.973 2.236 5.432 3.937 1.483 1.701 2.601 3.744 3.355 6.125 0.753 2.357 1.129 4.983 1.129 7.875v4.376h-31.353v-7h21.036v-0.803c0-1.459-0.267-2.759-0.801-3.901-0.501-1.154-1.304-2.097-2.31-2.756l-0.024-0.015c-1.045-0.68-2.383-1.020-4.011-1.020-1.385 0-2.577 0.303-3.573 0.911s-1.811 1.459-2.443 2.552c-0.608 1.093-1.069 2.383-1.385 3.865-0.292 1.457-0.437 3.061-0.437 4.812v1.459c0 1.58 0.219 3.037 0.656 4.375 0.461 1.337 1.105 2.492 1.932 3.464 0.833 0.951 1.854 1.714 3.007 2.237l0.055 0.023c1.216 0.535 2.589 0.803 4.12 0.803 1.896 0 3.657-0.365 5.287-1.093 1.652-0.755 3.075-1.884 4.265-3.392l5.104 5.543c-0.827 1.191-1.956 2.333-3.391 3.427-1.409 1.093-3.111 1.993-5.104 2.697-1.993 0.68-4.265 1.021-6.817 1.021zM251.223 30.109c0-0.947-0.147-1.799-0.437-2.552-0.268-0.777-0.779-1.483-1.532-2.115-0.753-0.656-1.811-1.3-3.172-1.933-1.36-0.631-3.123-1.287-5.285-1.968-2.798-0.9-5.067-1.789-7.273-2.795l0.418 0.171c-2.139-0.973-4.035-2.103-5.688-3.391-1.628-1.313-2.916-2.832-3.864-4.557-0.924-1.727-1.385-3.732-1.385-6.016 0-2.212 0.485-4.217 1.459-6.016 0.972-1.823 2.333-3.379 4.083-4.667 1.751-1.312 3.816-2.32 6.197-3.027 2.407-0.704 5.044-1.056 7.912-1.056 3.913 0 7.328 0.704 10.245 2.115 2.916 1.409 5.176 3.341 6.781 5.796 1.628 2.455 2.443 5.263 2.443 8.423h-10.865c0-1.556-0.328-2.917-0.984-4.084-0.632-1.191-1.604-2.127-2.917-2.807-1.288-0.68-2.916-1.021-4.885-1.021-1.896 0-3.475 0.292-4.739 0.875-1.264 0.56-2.212 1.325-2.844 2.297-0.594 0.881-0.948 1.966-0.948 3.134 0 0.026 0 0.052 0.001 0.077l-0-0.004c0 0.9 0.219 1.713 0.656 2.443 0.461 0.729 1.143 1.411 2.041 2.041 0.9 0.632 2.005 1.228 3.319 1.787 1.312 0.56 2.831 1.107 4.557 1.64 2.892 0.876 5.432 1.86 7.619 2.955 2.212 1.093 4.060 2.32 5.543 3.681s2.6 2.905 3.353 4.631c0.753 1.725 1.131 3.683 1.131 5.869 0 2.309-0.449 4.376-1.349 6.199-0.899 1.823-2.199 3.367-3.901 4.629-1.701 1.264-3.731 2.224-6.088 2.88-2.357 0.657-4.995 0.985-7.912 0.985-2.624 0-5.213-0.34-7.765-1.021-2.552-0.704-4.873-1.761-6.963-3.172-2.048-1.403-3.715-3.21-4.917-5.317l-0.041-0.079c-1.24-2.187-1.86-4.776-1.86-7.765h10.975c0 1.653 0.255 3.051 0.765 4.193s1.228 2.067 2.151 2.771c0.948 0.705 2.067 1.215 3.355 1.531 1.312 0.316 2.747 0.475 4.301 0.475 1.896 0 3.452-0.267 4.667-0.803 1.24-0.533 2.152-1.276 2.735-2.224 0.608-0.947 0.912-2.017 0.912-3.208zM268.757 24.677v-0.765c0-2.893 0.413-5.555 1.24-7.985 0.827-2.453 2.029-4.581 3.609-6.38s3.524-3.196 5.833-4.192c2.309-1.021 4.959-1.532 7.948-1.532s5.651 0.511 7.984 1.532c2.333 0.996 4.291 2.393 5.869 4.192 1.605 1.8 2.82 3.925 3.647 6.38 0.827 2.431 1.239 5.093 1.239 7.985v0.765c0 2.867-0.412 5.529-1.239 7.984-0.827 2.431-2.041 4.557-3.647 6.38-1.579 1.8-3.524 3.196-5.833 4.193-2.308 0.996-4.957 1.493-7.948 1.493-2.989 0-5.651-0.497-7.984-1.493-2.309-0.997-4.265-2.395-5.869-4.193-1.58-1.823-2.783-3.949-3.609-6.38-0.827-2.455-1.24-5.116-1.24-7.984zM279.257 23.912v0.765c0 1.653 0.145 3.196 0.437 4.631 0.292 1.433 0.753 2.697 1.385 3.791 0.636 1.044 1.497 1.893 2.518 2.498l0.034 0.018c1.045 0.608 2.321 0.912 3.828 0.912 1.459 0 2.711-0.304 3.756-0.912 1.049-0.616 1.9-1.467 2.498-2.484l0.018-0.032c0.632-1.093 1.093-2.357 1.385-3.792 0.316-1.433 0.473-2.977 0.473-4.629v-0.765c0-1.605-0.157-3.112-0.473-4.521-0.292-1.435-0.767-2.697-1.423-3.792-0.608-1.089-1.459-1.976-2.484-2.608l-0.030-0.018c-1.045-0.631-2.309-0.947-3.792-0.947s-2.747 0.316-3.792 0.947c-1.021 0.632-1.86 1.507-2.516 2.627-0.632 1.093-1.093 2.356-1.385 3.791-0.278 1.321-0.438 2.839-0.438 4.393 0 0.044 0 0.089 0 0.133l-0-0.007zM325.157-12v56h-10.537v-56h10.537zM358.661 34.557v-30.005h10.5v39.448h-9.881l-0.619-9.443zM359.828 26.464l3.099-0.073c0 2.625-0.304 5.067-0.912 7.328-0.607 2.236-1.519 4.18-2.735 5.833-1.206 1.609-2.745 2.903-4.52 3.795l-0.074 0.033c-1.847 0.9-4.023 1.349-6.525 1.349-1.92 0-3.695-0.267-5.324-0.803-1.627-0.566-3.018-1.451-4.156-2.588l0 0c-1.143-1.191-2.041-2.711-2.697-4.557-0.632-1.872-0.948-4.12-0.948-6.745v-25.484h10.5v25.557c0 1.167 0.133 2.151 0.401 2.953 0.291 0.801 0.692 1.459 1.203 1.968 0.511 0.511 1.105 0.876 1.787 1.093 0.674 0.209 1.448 0.33 2.25 0.33 0.029 0 0.058-0 0.087-0l-0.004 0c2.163 0 3.864-0.437 5.104-1.313 1.264-0.875 2.151-2.065 2.661-3.573 0.535-1.531 0.803-3.232 0.803-5.103zM397.997 4.552v7.437h-22.968v-7.437h22.968zM380.716-5.181h10.5v37.296c0 1.143 0.147 2.017 0.439 2.625 0.316 0.607 0.777 1.032 1.385 1.276 0.607 0.219 1.373 0.328 2.296 0.328 0.657 0 1.24-0.024 1.751-0.073 0.535-0.073 0.984-0.147 1.349-0.219l0.036 7.729c-0.9 0.292-1.872 0.523-2.917 0.693-0.993 0.162-2.137 0.254-3.303 0.254-0.056 0-0.112-0-0.168-0.001l0.009 0c-2.309 0-4.327-0.376-6.052-1.129-1.701-0.777-3.015-2.017-3.937-3.719-0.924-1.701-1.387-3.937-1.387-6.708v-38.355zM416.553 4.552v39.448h-10.536v-39.448h10.536zM405.361-5.728c0-1.533 0.535-2.796 1.604-3.793 1.069-0.996 2.503-1.493 4.301-1.493 1.775 0 3.197 0.497 4.267 1.493 1.093 0.997 1.64 2.261 1.64 3.792 0 1.532-0.547 2.795-1.64 3.792-1.069 0.996-2.492 1.495-4.267 1.495-1.799 0-3.232-0.499-4.301-1.495-1.069-0.997-1.604-2.26-1.604-3.792zM425.047 24.677v-0.765c0-2.893 0.413-5.555 1.24-7.985 0.827-2.453 2.029-4.581 3.609-6.38s3.524-3.196 5.833-4.192c2.309-1.021 4.959-1.532 7.948-1.532s5.651 0.511 7.984 1.532c2.333 0.996 4.291 2.393 5.871 4.192 1.604 1.8 2.819 3.925 3.645 6.38 0.827 2.431 1.24 5.093 1.24 7.985v0.765c0 2.867-0.413 5.529-1.24 7.984-0.827 2.431-2.041 4.557-3.645 6.38-1.58 1.8-3.525 3.196-5.833 4.193-2.309 0.996-4.959 1.493-7.948 1.493-2.991 0-5.652-0.497-7.985-1.493-2.308-0.997-4.265-2.395-5.869-4.193-1.58-1.823-2.783-3.949-3.609-6.38-0.827-2.455-1.24-5.116-1.24-7.984zM435.547 23.912v0.765c0 1.653 0.147 3.196 0.437 4.631 0.292 1.433 0.755 2.697 1.387 3.791 0.636 1.045 1.496 1.894 2.518 2.498l0.034 0.018c1.044 0.608 2.32 0.912 3.828 0.912 1.457 0 2.709-0.304 3.755-0.912 1.049-0.616 1.9-1.467 2.498-2.484l0.018-0.032c0.632-1.093 1.093-2.357 1.385-3.792 0.316-1.433 0.473-2.977 0.473-4.629v-0.765c0-1.605-0.157-3.112-0.473-4.521-0.292-1.435-0.765-2.697-1.423-3.792-0.607-1.089-1.459-1.976-2.484-2.608l-0.031-0.017c-1.045-0.631-2.309-0.947-3.792-0.947s-2.747 0.316-3.792 0.947c-1.020 0.632-1.859 1.507-2.515 2.627-0.632 1.093-1.095 2.356-1.387 3.791-0.278 1.324-0.438 2.845-0.438 4.403 0 0.041 0 0.082 0 0.124l-0-0.006zM480.644 12.973v31.027h-10.5v-39.448h9.844l0.656 8.421zM479.113 22.891h-2.844c0-2.917 0.377-5.541 1.131-7.875 0.753-2.359 1.811-4.363 3.172-6.016 1.361-1.677 2.977-2.953 4.848-3.828 1.896-0.9 4.011-1.349 6.344-1.349 1.848 0 3.537 0.267 5.068 0.803 1.556 0.543 2.877 1.419 3.932 2.547l0.005 0.005c1.119 1.167 1.969 2.709 2.552 4.629 0.608 1.92 0.912 4.267 0.912 7.037v25.156h-10.573v-25.193c0-1.749-0.243-3.111-0.729-4.083-0.485-0.973-1.203-1.653-2.151-2.041-0.924-0.413-2.065-0.62-3.427-0.62-1.411 0-2.637 0.28-3.683 0.839-1.038 0.577-1.895 1.363-2.536 2.308l-0.016 0.026c-0.656 0.972-1.155 2.115-1.495 3.427-0.325 1.235-0.511 2.653-0.511 4.115 0 0.040 0 0.081 0 0.121l-0-0.006zM535.039 33.099c0-0.753-0.219-1.433-0.656-2.041s-1.252-1.167-2.443-1.677c-1.167-0.533-2.856-1.020-5.068-1.459-2.18-0.474-4.046-1.038-5.847-1.731l0.27 0.091c-1.701-0.68-3.184-1.495-4.448-2.443-1.192-0.902-2.17-2.019-2.89-3.301l-0.028-0.053c-0.704-1.312-1.057-2.807-1.057-4.484 0-1.653 0.353-3.208 1.057-4.667 0.729-1.459 1.763-2.747 3.099-3.864 1.361-1.143 3.015-2.031 4.959-2.663 1.969-0.656 4.181-0.984 6.636-0.984 3.427 0 6.368 0.547 8.823 1.64 2.479 1.095 4.375 2.601 5.688 4.521 1.336 1.896 2.004 4.060 2.004 6.489h-10.5c0-1.020-0.219-1.932-0.656-2.733-0.413-0.827-1.069-1.471-1.968-1.933-0.876-0.485-2.017-0.728-3.428-0.728-1.167 0-2.175 0.207-3.025 0.619-0.851 0.389-1.507 0.924-1.969 1.605-0.411 0.604-0.656 1.35-0.656 2.152 0 0.012 0 0.024 0 0.036v-0.002c0 0.608 0.121 1.155 0.365 1.64 0.267 0.463 0.692 0.888 1.276 1.277 0.583 0.388 1.336 0.753 2.26 1.093 0.948 0.316 2.115 0.608 3.5 0.875 2.844 0.584 5.384 1.349 7.62 2.297 2.236 0.924 4.011 2.187 5.323 3.792 1.312 1.58 1.968 3.657 1.968 6.233 0 1.751-0.388 3.355-1.167 4.813-0.777 1.459-1.895 2.733-3.353 3.827-1.459 1.071-3.208 1.909-5.251 2.517-2.017 0.583-4.289 0.875-6.817 0.875-3.671 0-6.781-0.656-9.333-1.969-2.528-1.312-4.448-2.977-5.76-4.995-1.288-2.041-1.932-4.132-1.932-6.271h9.952c0.049 1.435 0.413 2.589 1.095 3.464 0.686 0.853 1.586 1.507 2.62 1.883l0.042 0.013c1.093 0.388 2.272 0.583 3.536 0.583 1.361 0 2.492-0.183 3.391-0.547 0.9-0.389 1.58-0.899 2.041-1.531 0.456-0.607 0.73-1.374 0.73-2.204 0-0.020-0-0.040-0-0.060l0 0.003zM-73.389 124h-10.573v-42.947c0-2.991 0.584-5.507 1.751-7.548 1.166-2.029 2.874-3.631 4.927-4.637l0.067-0.030c2.163-1.069 4.727-1.604 7.693-1.604 0.972 0 1.907 0.072 2.807 0.219 0.899 0.121 1.773 0.28 2.625 0.473l-0.109 7.912c-0.417-0.114-0.913-0.204-1.422-0.252l-0.037-0.003c-0.511-0.049-1.107-0.073-1.787-0.073-1.264 0-2.347 0.219-3.245 0.656-0.858 0.4-1.547 1.042-1.994 1.838l-0.011 0.022c-0.461 0.827-0.692 1.835-0.692 3.027v42.947zM-65.515 84.552v7.437h-24.317v-7.437h24.317zM-60.193 104.677v-0.765c0-2.893 0.413-5.555 1.24-7.985 0.827-2.453 2.029-4.581 3.609-6.38s3.524-3.196 5.833-4.192c2.309-1.021 4.959-1.532 7.948-1.532s5.651 0.511 7.984 1.532c2.333 0.996 4.291 2.393 5.871 4.192 1.604 1.8 2.819 3.925 3.645 6.38 0.827 2.431 1.24 5.093 1.24 7.985v0.765c0 2.867-0.413 5.529-1.24 7.984-0.827 2.431-2.041 4.557-3.645 6.38-1.58 1.8-3.525 3.196-5.833 4.193-2.309 0.996-4.96 1.493-7.948 1.493-2.989 0-5.652-0.497-7.985-1.493-2.308-0.997-4.265-2.395-5.869-4.193-1.58-1.823-2.783-3.949-3.609-6.38-0.827-2.455-1.24-5.116-1.24-7.984zM-49.693 103.912v0.765c0 1.653 0.147 3.196 0.437 4.631 0.293 1.433 0.755 2.697 1.387 3.791 0.636 1.045 1.496 1.893 2.518 2.498l0.034 0.018c1.044 0.608 2.32 0.911 3.827 0.911 1.459 0 2.711-0.303 3.756-0.911 1.049-0.616 1.9-1.467 2.498-2.484l0.018-0.032c0.632-1.093 1.093-2.357 1.385-3.791 0.316-1.435 0.473-2.979 0.473-4.631v-0.765c0-1.604-0.157-3.112-0.473-4.521-0.292-1.435-0.765-2.699-1.423-3.792-0.608-1.089-1.459-1.975-2.484-2.606l-0.031-0.017c-1.045-0.632-2.309-0.949-3.792-0.949s-2.747 0.316-3.792 0.949c-1.020 0.631-1.859 1.507-2.516 2.624-0.632 1.093-1.093 2.357-1.385 3.792-0.278 1.322-0.438 2.84-0.438 4.396 0 0.044 0 0.087 0 0.13l-0-0.007zM-4.376 93.156v30.844h-10.501v-39.448h9.88l0.621 8.604zM7.509 84.297l-0.183 9.733c-0.5-0.073-1.14-0.137-1.787-0.178l-0.073-0.004c-0.575-0.066-1.247-0.106-1.927-0.109l-0.005-0c-1.483 0-2.771 0.193-3.864 0.583-1.069 0.365-1.969 0.912-2.699 1.64-0.702 0.736-1.25 1.626-1.589 2.612l-0.015 0.050c-0.34 1.045-0.533 2.236-0.583 3.573l-2.115-0.657c0-2.552 0.255-4.897 0.765-7.036 0.511-2.164 1.252-4.047 2.224-5.651 0.996-1.605 2.212-2.844 3.645-3.72 1.435-0.875 3.075-1.312 4.923-1.312 0.583 0 1.179 0.049 1.787 0.147 0.607 0.072 1.105 0.181 1.493 0.328zM41.996 70.917l11.083 24.208 11.084-24.208h11.921l-17.464 33.76v19.323h-11.083v-19.323l-17.5-33.76h11.959zM77.687 104.677v-0.765c0-2.893 0.413-5.555 1.24-7.985 0.827-2.453 2.029-4.581 3.609-6.38s3.524-3.196 5.833-4.192c2.308-1.021 4.959-1.532 7.947-1.532 2.991 0 5.652 0.511 7.985 1.532 2.333 0.996 4.289 2.393 5.869 4.192 1.604 1.8 2.82 3.925 3.647 6.38 0.827 2.431 1.24 5.093 1.24 7.985v0.765c0 2.867-0.413 5.529-1.24 7.984-0.827 2.431-2.043 4.557-3.647 6.38-1.58 1.8-3.524 3.196-5.833 4.193-2.308 0.996-4.959 1.493-7.947 1.493-2.991 0-5.652-0.497-7.985-1.493-2.309-0.997-4.267-2.395-5.869-4.193-1.58-1.823-2.783-3.949-3.609-6.38-0.827-2.455-1.24-5.116-1.24-7.984zM88.187 103.912v0.765c0 1.653 0.147 3.196 0.437 4.631 0.292 1.433 0.753 2.697 1.387 3.791 0.636 1.044 1.496 1.893 2.517 2.498l0.034 0.018c1.045 0.608 2.321 0.911 3.828 0.911 1.459 0 2.711-0.303 3.756-0.911 1.049-0.616 1.9-1.467 2.498-2.484l0.018-0.032c0.631-1.093 1.093-2.357 1.384-3.791 0.316-1.435 0.475-2.979 0.475-4.631v-0.765c0-1.604-0.157-3.112-0.475-4.521-0.291-1.435-0.765-2.699-1.421-3.792-0.608-1.089-1.46-1.975-2.485-2.606l-0.031-0.017c-1.045-0.632-2.308-0.949-3.791-0.949s-2.747 0.316-3.792 0.949c-1.021 0.631-1.86 1.507-2.516 2.624-0.632 1.093-1.093 2.357-1.385 3.792-0.278 1.322-0.438 2.84-0.438 4.396 0 0.044 0 0.087 0 0.13l-0-0.007zM146.336 114.557v-30.005h10.5v39.448h-9.88l-0.62-9.443zM147.503 106.464l3.099-0.073c0 2.625-0.303 5.067-0.911 7.328-0.608 2.236-1.52 4.18-2.735 5.833-1.206 1.609-2.745 2.903-4.52 3.795l-0.073 0.033c-1.848 0.9-4.023 1.349-6.527 1.349-1.92 0-3.693-0.267-5.323-0.803-1.627-0.566-3.018-1.451-4.156-2.588l0 0c-1.143-1.191-2.041-2.711-2.699-4.557-0.632-1.872-0.947-4.12-0.947-6.745v-25.484h10.499v25.557c0 1.167 0.135 2.151 0.401 2.953 0.292 0.801 0.693 1.459 1.204 1.968 0.509 0.511 1.105 0.876 1.785 1.093 0.674 0.209 1.449 0.33 2.251 0.33 0.029 0 0.058-0 0.086-0l-0.004 0c2.164 0 3.865-0.437 5.105-1.312 1.263-0.876 2.151-2.067 2.661-3.573 0.535-1.532 0.801-3.233 0.801-5.104zM176.851 93.157v30.843h-10.5v-39.448h9.88l0.62 8.604zM188.736 84.297l-0.183 9.733c-0.511-0.072-1.131-0.133-1.859-0.181-0.576-0.066-1.248-0.106-1.928-0.109l-0.005-0c-1.483 0-2.771 0.193-3.864 0.583-1.069 0.365-1.969 0.912-2.697 1.64-0.705 0.729-1.24 1.617-1.605 2.663-0.34 1.045-0.535 2.236-0.583 3.573l-2.115-0.657c0-2.552 0.255-4.897 0.765-7.036 0.511-2.164 1.252-4.047 2.224-5.651 0.997-1.605 2.212-2.844 3.647-3.72 1.433-0.875 3.075-1.312 4.921-1.312 0.583 0 1.179 0.049 1.787 0.147 0.553 0.056 1.060 0.172 1.541 0.342l-0.046-0.014zM236.712 100.703h-13.636l-0.072-7.511h11.448c2.017 0 3.669-0.253 4.957-0.765 1.289-0.533 2.249-1.3 2.881-2.296 0.656-1.021 0.984-2.261 0.984-3.72 0-1.652-0.316-2.989-0.948-4.009-0.608-1.021-1.568-1.763-2.88-2.224-1.288-0.463-2.953-0.693-4.995-0.693h-7.584v44.516h-10.937v-53.084h18.521c3.087 0 5.845 0.293 8.276 0.876 2.455 0.583 4.533 1.471 6.235 2.661 1.657 1.153 2.98 2.675 3.869 4.452l0.031 0.068c0.9 1.8 1.349 3.939 1.349 6.417 0 2.187-0.499 4.205-1.495 6.052-0.972 1.847-2.516 3.355-4.631 4.52-2.089 1.168-4.824 1.812-8.203 1.933l-3.172 2.807zM236.239 124h-16.152l4.267-8.531h11.885c1.92 0 3.487-0.304 4.703-0.912 1.215-0.632 2.115-1.483 2.697-2.552 0.584-1.069 0.876-2.297 0.876-3.683 0-1.555-0.268-2.904-0.803-4.047-0.511-1.143-1.337-2.017-2.479-2.625-1.143-0.632-2.649-0.947-4.521-0.947h-10.536l0.072-7.512h13.125l2.516 2.953c3.232-0.048 5.833 0.523 7.801 1.713 1.993 1.167 3.44 2.687 4.339 4.557 0.874 1.731 1.386 3.773 1.386 5.935 0 0.028-0 0.057-0 0.085l0-0.004c0 3.403-0.741 6.271-2.224 8.604-1.483 2.309-3.657 4.047-6.525 5.213-2.844 1.168-6.32 1.751-10.427 1.751zM287.789 114.557v-30.005h10.5v39.448h-9.881l-0.619-9.443zM288.956 106.464l3.099-0.073c0 2.625-0.304 5.067-0.912 7.328-0.608 2.236-1.519 4.18-2.735 5.833-1.206 1.609-2.745 2.903-4.52 3.795l-0.074 0.033c-1.847 0.9-4.023 1.349-6.525 1.349-1.921 0-3.695-0.267-5.324-0.803-1.627-0.566-3.018-1.451-4.156-2.588l0 0c-1.143-1.191-2.041-2.711-2.697-4.557-0.632-1.872-0.948-4.12-0.948-6.745v-25.484h10.5v25.557c0 1.167 0.133 2.151 0.401 2.953 0.291 0.801 0.692 1.459 1.203 1.968 0.511 0.511 1.105 0.876 1.787 1.093 0.674 0.209 1.448 0.33 2.25 0.33 0.029 0 0.058-0 0.087-0l-0.004 0c2.163 0 3.864-0.437 5.104-1.312 1.264-0.876 2.151-2.067 2.661-3.573 0.535-1.532 0.803-3.233 0.803-5.104zM329.131 113.099c0-0.753-0.219-1.433-0.656-2.041s-1.252-1.167-2.443-1.677c-1.167-0.533-2.856-1.021-5.068-1.459-2.18-0.474-4.046-1.038-5.848-1.731l0.27 0.091c-1.701-0.68-3.184-1.495-4.448-2.443-1.192-0.902-2.17-2.019-2.89-3.301l-0.028-0.053c-0.704-1.312-1.057-2.807-1.057-4.484 0-1.653 0.353-3.208 1.057-4.667 0.729-1.459 1.763-2.747 3.099-3.864 1.361-1.143 3.015-2.031 4.959-2.663 1.969-0.656 4.181-0.984 6.636-0.984 3.427 0 6.368 0.547 8.823 1.64 2.479 1.095 4.375 2.601 5.688 4.521 1.336 1.896 2.004 4.060 2.004 6.491h-10.5c0-1.021-0.219-1.933-0.656-2.735-0.413-0.827-1.069-1.471-1.968-1.933-0.876-0.485-2.017-0.728-3.428-0.728-1.167 0-2.175 0.205-3.025 0.619-0.851 0.389-1.507 0.924-1.969 1.605-0.411 0.604-0.656 1.35-0.656 2.153 0 0.012 0 0.024 0 0.036v-0.002c0 0.608 0.121 1.155 0.365 1.64 0.267 0.463 0.692 0.888 1.276 1.277 0.583 0.388 1.336 0.753 2.26 1.093 0.948 0.316 2.115 0.608 3.5 0.875 2.844 0.584 5.384 1.349 7.62 2.297 2.236 0.924 4.011 2.187 5.323 3.792 1.312 1.58 1.969 3.657 1.969 6.233 0 1.751-0.389 3.355-1.167 4.813-0.779 1.459-1.896 2.733-3.355 3.827-1.459 1.071-3.208 1.909-5.251 2.517-2.017 0.583-4.289 0.875-6.817 0.875-3.669 0-6.781-0.656-9.333-1.969-2.528-1.312-4.448-2.977-5.76-4.995-1.288-2.041-1.932-4.132-1.932-6.271h9.952c0.049 1.435 0.413 2.589 1.095 3.464 0.686 0.853 1.586 1.507 2.62 1.883l0.041 0.013c1.093 0.388 2.272 0.583 3.536 0.583 1.361 0 2.492-0.183 3.391-0.547 0.9-0.389 1.58-0.9 2.041-1.532 0.456-0.607 0.73-1.374 0.73-2.204 0-0.020-0-0.039-0-0.059l0 0.003zM358.733 84.552v39.448h-10.536v-39.448h10.536zM347.541 74.272c0-1.533 0.535-2.796 1.604-3.793 1.069-0.996 2.503-1.493 4.301-1.493 1.775 0 3.197 0.497 4.267 1.493 1.093 0.997 1.64 2.261 1.64 3.792 0 1.532-0.547 2.795-1.64 3.792-1.069 0.996-2.492 1.495-4.267 1.495-1.799 0-3.232-0.499-4.301-1.495s-1.604-2.26-1.604-3.792zM379.185 92.975v31.025h-10.5v-39.448h9.844l0.656 8.423zM377.655 102.891h-2.844c0-2.917 0.376-5.541 1.129-7.875 0.755-2.359 1.812-4.363 3.172-6.016 1.361-1.677 2.977-2.953 4.849-3.828 1.896-0.9 4.011-1.349 6.344-1.349 1.847 0 3.536 0.267 5.068 0.803 1.555 0.544 2.877 1.419 3.932 2.547l0.005 0.005c1.117 1.167 1.968 2.709 2.552 4.631 0.608 1.92 0.911 4.265 0.911 7.036v25.156h-10.572v-25.192c0-1.751-0.244-3.112-0.729-4.084-0.487-0.973-1.203-1.653-2.151-2.041-0.924-0.413-2.067-0.62-3.428-0.62-1.409 0-2.637 0.28-3.681 0.839-1.038 0.577-1.895 1.363-2.536 2.308l-0.016 0.026c-0.657 0.972-1.155 2.115-1.496 3.427-0.324 1.234-0.51 2.65-0.51 4.11 0 0.042 0 0.084 0 0.126l-0-0.006zM430.408 124.729c-3.063 0-5.809-0.487-8.24-1.459-2.431-0.996-4.496-2.369-6.197-4.12-1.631-1.701-2.941-3.725-3.822-5.964l-0.043-0.124c-0.899-2.333-1.348-4.813-1.348-7.437v-1.459c0-2.989 0.425-5.724 1.276-8.203 0.851-2.48 2.065-4.631 3.645-6.453 1.578-1.788 3.526-3.211 5.729-4.154l0.104-0.040c2.285-0.996 4.861-1.493 7.729-1.493 2.795 0 5.275 0.461 7.437 1.384 2.163 0.924 3.975 2.236 5.432 3.937 1.483 1.701 2.601 3.744 3.355 6.125 0.753 2.357 1.131 4.983 1.131 7.875v4.376h-31.355v-7h21.036v-0.803c0-1.459-0.267-2.759-0.801-3.901-0.5-1.154-1.303-2.098-2.31-2.756l-0.024-0.014c-1.045-0.68-2.383-1.021-4.011-1.021-1.385 0-2.576 0.304-3.573 0.912-0.996 0.608-1.811 1.459-2.443 2.552-0.608 1.093-1.069 2.383-1.385 3.865-0.292 1.457-0.437 3.061-0.437 4.812v1.459c0 1.58 0.219 3.037 0.656 4.375 0.463 1.337 1.107 2.491 1.932 3.464 0.833 0.951 1.854 1.714 3.007 2.237l0.055 0.022c1.216 0.535 2.589 0.801 4.12 0.801 1.896 0 3.659-0.364 5.287-1.093 1.653-0.753 3.075-1.883 4.265-3.391l5.104 5.541c-0.827 1.192-1.956 2.333-3.391 3.427-1.409 1.095-3.111 1.995-5.104 2.699-1.993 0.68-4.265 1.021-6.817 1.021zM475.396 113.099c0-0.753-0.219-1.433-0.656-2.041s-1.252-1.167-2.443-1.677c-1.167-0.533-2.856-1.021-5.068-1.459-2.181-0.474-4.047-1.039-5.849-1.731l0.271 0.091c-1.701-0.68-3.184-1.495-4.448-2.443-1.191-0.902-2.169-2.020-2.888-3.301l-0.028-0.054c-0.705-1.312-1.057-2.807-1.057-4.484 0-1.653 0.352-3.208 1.057-4.667 0.729-1.459 1.763-2.747 3.099-3.864 1.361-1.143 3.015-2.031 4.959-2.663 1.968-0.656 4.18-0.984 6.635-0.984 3.428 0 6.369 0.547 8.824 1.64 2.479 1.095 4.375 2.601 5.687 4.521 1.337 1.896 2.005 4.060 2.005 6.491h-10.5c0-1.021-0.219-1.933-0.656-2.735-0.413-0.827-1.069-1.471-1.969-1.933-0.875-0.485-2.017-0.728-3.427-0.728-1.167 0-2.175 0.205-3.025 0.619-0.851 0.389-1.508 0.924-1.969 1.605-0.411 0.604-0.656 1.35-0.656 2.153 0 0.012 0 0.024 0 0.036v-0.002c0 0.608 0.121 1.155 0.364 1.64 0.268 0.463 0.693 0.888 1.276 1.277 0.584 0.388 1.337 0.753 2.261 1.093 0.948 0.316 2.115 0.608 3.5 0.875 2.843 0.584 5.383 1.349 7.619 2.297 2.237 0.924 4.011 2.187 5.324 3.792 1.312 1.58 1.968 3.657 1.968 6.233 0 1.751-0.388 3.355-1.167 4.813-0.777 1.459-1.896 2.733-3.353 3.827-1.459 1.071-3.209 1.909-5.251 2.517-2.017 0.583-4.289 0.875-6.817 0.875-3.671 0-6.781-0.656-9.333-1.969-2.528-1.312-4.448-2.977-5.76-4.995-1.289-2.041-1.933-4.132-1.933-6.271h9.953c0.049 1.435 0.413 2.589 1.093 3.464 0.686 0.853 1.587 1.507 2.621 1.883l0.042 0.013c1.093 0.388 2.272 0.583 3.536 0.583 1.361 0 2.491-0.183 3.391-0.547 0.899-0.389 1.58-0.9 2.041-1.532 0.456-0.607 0.73-1.374 0.73-2.204 0-0.020-0-0.039-0-0.059l0 0.003zM515.244 113.099c0-0.753-0.219-1.433-0.657-2.041-0.437-0.608-1.251-1.167-2.443-1.677-1.167-0.533-2.855-1.021-5.067-1.459-2.181-0.474-4.047-1.038-5.849-1.731l0.27 0.091c-1.701-0.68-3.184-1.495-4.448-2.443-1.192-0.901-2.17-2.019-2.888-3.301l-0.028-0.053c-0.705-1.312-1.057-2.807-1.057-4.484 0-1.653 0.352-3.208 1.057-4.667 0.729-1.459 1.761-2.747 3.099-3.864 1.361-1.143 3.013-2.031 4.959-2.663 1.968-0.656 4.18-0.984 6.635-0.984 3.427 0 6.368 0.547 8.823 1.64 2.48 1.095 4.376 2.601 5.688 4.521 1.337 1.896 2.005 4.060 2.005 6.491h-10.5c0-1.021-0.219-1.933-0.656-2.735-0.413-0.827-1.069-1.471-1.969-1.933-0.875-0.485-2.017-0.728-3.427-0.728-1.167 0-2.176 0.205-3.027 0.619-0.851 0.389-1.507 0.924-1.968 1.605-0.411 0.604-0.656 1.35-0.656 2.153 0 0.012 0 0.024 0 0.036v-0.002c0 0.608 0.121 1.155 0.364 1.64 0.268 0.463 0.693 0.888 1.276 1.277 0.584 0.388 1.337 0.753 2.26 1.093 0.948 0.316 2.115 0.608 3.5 0.875 2.844 0.584 5.384 1.349 7.62 2.297 2.236 0.924 4.011 2.187 5.323 3.792 1.313 1.58 1.969 3.657 1.969 6.233 0 1.751-0.389 3.355-1.167 4.813s-1.896 2.733-3.355 3.827c-1.457 1.071-3.208 1.909-5.249 2.517-2.017 0.583-4.291 0.875-6.817 0.875-3.671 0-6.781-0.656-9.333-1.969-2.528-1.312-4.448-2.977-5.761-4.995-1.288-2.041-1.932-4.132-1.932-6.271h9.953c0.048 1.435 0.413 2.589 1.093 3.464 0.686 0.852 1.586 1.506 2.62 1.883l0.042 0.013c1.027 0.369 2.213 0.583 3.448 0.583 0.031 0 0.063-0 0.094-0l-0.005 0c1.36 0 2.491-0.183 3.391-0.547 0.899-0.389 1.579-0.9 2.041-1.532 0.456-0.608 0.73-1.376 0.73-2.207 0-0.019-0-0.037-0-0.056l0 0.003z"></path>
<path fill="#2e2f42" style="fill: var(--color4, #2e2f42)" opacity="0.4" d="M-741.333-378.667h1920v901.333h-1920z"></path>
<path fill="#fcfcfc" style="fill: var(--color5, #fcfcfc)" d="M-48-272h533.333c2.946 0 5.333 2.388 5.333 5.333v768c0 2.946-2.388 5.333-5.333 5.333h-533.333c-2.946 0-5.333-2.388-5.333-5.333v-768c0-2.946 2.388-5.333 5.333-5.333z"></path>
<path fill="none" stroke="#2e2f42" style="stroke: var(--color4, #2e2f42)" stroke-linejoin="miter" stroke-linecap="butt" stroke-miterlimit="4" stroke-width="1.3333" d="M-16-10h469.333c2.577 0 4.667 2.089 4.667 4.667v42.667c0 2.577-2.089 4.667-4.667 4.667h-469.333c-2.577 0-4.667-2.089-4.667-4.667v-42.667c0-2.577 2.089-4.667 4.667-4.667z"></path>
<path fill="#2e2f42" style="fill: var(--color4, #2e2f42)" d="M19.635 18.487l-2.451-0.28c-0.067-0.008-0.145-0.013-0.223-0.013-0.531 0-1.012 0.215-1.36 0.564l-1.775 1.775c-2.752-1.42-4.94-3.607-6.322-6.278l-0.038-0.081 1.787-1.785c0.347-0.347 0.562-0.827 0.562-1.358 0-0.079-0.005-0.156-0.014-0.233l0.001 0.009-0.28-2.432c-0.115-0.966-0.93-1.708-1.918-1.708-0.001 0-0.002 0-0.002 0h-1.669c-1.091 0-1.997 0.907-1.929 1.997 0.511 8.24 7.101 14.821 15.332 15.333 1.091 0.067 1.997-0.84 1.997-1.931v-1.669c0-0.003 0-0.007 0-0.011 0-0.981-0.739-1.789-1.69-1.899l-0.009-0.001z"></path>
</symbol>
<symbol id="icon-email-black-18dp-1-1" viewBox="0 0 24 32">
<path fill="#e5e5e5" style="fill: var(--color1, #e5e5e5)" d="M0 0h24v32h-24z"></path>
<path fill="#fff" style="fill: var(--color2, #fff)" d="M-741.333-466.667h1920v896h-1920z"></path>
<path fill="#000" style="fill: var(--color3, #000)" d="M-741.333-370.667h1920v800h-1920z"></path>
<path fill="#2e2f42" style="fill: var(--color4, #2e2f42)" opacity="0.7" d="M-741.333-370.667h1920v800h-1920z"></path>
<path fill="#fff" style="fill: var(--color2, #fff)" d="M-70.289-52.531v8.531h-28.255v-8.531h28.255zM-94.971-97.083v53.083h-10.939v-53.084h10.939zM-73.971-75.464v8.313h-24.573v-8.313h24.573zM-70.325-97.084v8.568h-28.219v-8.567h28.219zM-50.348-44h-10.573v-42.947c0-2.991 0.584-5.507 1.751-7.548 1.166-2.029 2.874-3.631 4.927-4.637l0.068-0.030c2.163-1.069 4.728-1.604 7.693-1.604 0.972 0 1.907 0.073 2.807 0.219 0.9 0.121 1.773 0.28 2.625 0.473l-0.109 7.912c-0.417-0.114-0.913-0.204-1.422-0.253l-0.037-0.003c-0.511-0.048-1.107-0.072-1.787-0.072-1.264 0-2.345 0.219-3.244 0.656-0.858 0.4-1.547 1.041-1.994 1.837l-0.011 0.022c-0.463 0.827-0.693 1.836-0.693 3.027v42.948zM-42.472-83.448v7.437h-24.319v-7.437h24.319zM-22.093-44h-10.573v-42.947c0-2.991 0.583-5.507 1.749-7.548 1.166-2.029 2.874-3.631 4.927-4.637l0.068-0.030c2.164-1.069 4.728-1.604 7.693-1.604 0.973 0 1.908 0.073 2.807 0.219 0.9 0.121 1.775 0.28 2.627 0.473l-0.111 7.912c-0.417-0.114-0.913-0.204-1.422-0.253l-0.037-0.003c-0.509-0.048-1.105-0.072-1.787-0.072-1.263 0-2.345 0.219-3.244 0.656-0.858 0.4-1.547 1.041-1.994 1.837l-0.011 0.022c-0.461 0.827-0.693 1.836-0.693 3.027v42.948zM-14.219-83.448v7.437h-24.319v-7.437h24.319zM10.061-43.271c-3.063 0-5.809-0.487-8.24-1.459-2.431-0.996-4.496-2.369-6.199-4.12-1.631-1.701-2.94-3.724-3.821-5.964l-0.043-0.124c-0.899-2.333-1.349-4.813-1.349-7.437v-1.459c0-2.989 0.427-5.724 1.276-8.203 0.851-2.48 2.067-4.631 3.647-6.453 1.578-1.788 3.526-3.211 5.729-4.154l0.104-0.040c2.284-0.996 4.861-1.493 7.729-1.493 2.795 0 5.273 0.461 7.437 1.384 2.163 0.924 3.973 2.236 5.432 3.937 1.483 1.701 2.6 3.744 3.355 6.125 0.753 2.357 1.129 4.983 1.129 7.875v4.376h-31.353v-7h21.036v-0.803c0-1.459-0.267-2.759-0.803-3.901-0.5-1.154-1.303-2.098-2.31-2.756l-0.024-0.014c-1.044-0.68-2.381-1.020-4.009-1.020-1.387 0-2.577 0.303-3.573 0.911s-1.811 1.459-2.443 2.552c-0.608 1.093-1.069 2.383-1.387 3.865-0.289 1.457-0.436 3.063-0.436 4.812v1.459c0 1.58 0.219 3.037 0.656 4.375 0.461 1.337 1.107 2.491 1.933 3.464 0.833 0.951 1.853 1.714 3.006 2.237l0.055 0.023c1.215 0.535 2.588 0.803 4.12 0.803 1.896 0 3.657-0.365 5.287-1.093 1.653-0.755 3.075-1.885 4.265-3.392l5.104 5.543c-0.827 1.191-1.956 2.333-3.391 3.427-1.409 1.093-3.111 1.993-5.104 2.697-1.993 0.68-4.267 1.021-6.817 1.021zM50.017-51.473c1.288 0 2.431-0.244 3.427-0.729 0.97-0.489 1.761-1.209 2.319-2.091l0.014-0.024c0.584-0.924 0.888-2.005 0.912-3.245h9.88c-0.024 2.771-0.765 5.237-2.224 7.4-1.457 2.14-3.413 3.829-5.869 5.069-2.455 1.215-5.201 1.823-8.24 1.823-3.063 0-5.736-0.511-8.020-1.532-2.261-1.020-4.144-2.431-5.652-4.228-1.507-1.824-2.636-3.939-3.389-6.344-0.755-2.431-1.131-5.032-1.131-7.803v-1.057c0-2.795 0.376-5.396 1.131-7.801 0.753-2.431 1.883-4.547 3.389-6.344 1.507-1.823 3.391-3.245 5.652-4.267 2.26-1.020 4.909-1.531 7.947-1.531 3.233 0 6.065 0.62 8.496 1.86 2.453 1.24 4.375 3.013 5.76 5.323 1.409 2.284 2.127 4.995 2.151 8.131h-9.88c-0.024-1.313-0.304-2.504-0.839-3.573-0.507-1.064-1.281-1.931-2.235-2.537l-0.025-0.015c-0.973-0.656-2.175-0.985-3.609-0.985-1.531 0-2.783 0.329-3.755 0.985-0.973 0.632-1.727 1.507-2.261 2.625-0.533 1.093-0.911 2.345-1.129 3.755-0.187 1.288-0.293 2.775-0.293 4.287 0 0.031 0 0.061 0 0.092v-0.005 1.057c0 1.532 0.099 3.003 0.293 4.412 0.193 1.409 0.559 2.661 1.093 3.755 0.56 1.093 1.324 1.957 2.296 2.589 0.973 0.632 2.237 0.947 3.792 0.947zM93.475-83.447v7.436h-22.969v-7.437h22.969zM76.193-93.183h10.5v37.297c0 1.143 0.147 2.017 0.437 2.625 0.293 0.581 0.777 1.030 1.369 1.27l0.018 0.006c0.607 0.219 1.373 0.328 2.296 0.328 0.656 0 1.24-0.024 1.749-0.073 0.535-0.073 0.985-0.147 1.349-0.219l0.036 7.729c-0.899 0.292-1.871 0.523-2.916 0.693-1.045 0.169-2.2 0.253-3.464 0.253-2.309 0-4.327-0.376-6.052-1.129-1.701-0.777-3.013-2.017-3.937-3.719s-1.385-3.937-1.385-6.708v-38.355zM112.031-83.448v39.448h-10.537v-39.448h10.536zM100.837-93.728c0-1.533 0.535-2.796 1.604-3.793 1.069-0.996 2.504-1.493 4.303-1.493 1.773 0 3.196 0.497 4.267 1.493 1.093 0.997 1.64 2.261 1.64 3.792 0 1.532-0.547 2.795-1.64 3.792-1.071 0.996-2.493 1.495-4.267 1.495-1.799 0-3.233-0.499-4.303-1.495-1.069-0.997-1.604-2.26-1.604-3.792zM135.617-51.656l8.751-31.792h10.973l-13.307 39.448h-6.636l0.219-7.656zM129.601-83.448l8.787 31.828 0.183 7.62h-6.672l-13.307-39.448h11.008zM179.184-43.271c-3.063 0-5.809-0.487-8.24-1.459-2.431-0.996-4.496-2.369-6.197-4.12-1.631-1.701-2.941-3.725-3.822-5.964l-0.043-0.124c-0.899-2.333-1.348-4.813-1.348-7.437v-1.459c0-2.989 0.425-5.724 1.276-8.203 0.851-2.48 2.065-4.631 3.645-6.453 1.578-1.788 3.526-3.211 5.729-4.154l0.104-0.040c2.284-0.996 4.861-1.493 7.729-1.493 2.795 0 5.275 0.461 7.437 1.384 2.163 0.924 3.973 2.236 5.432 3.937 1.483 1.701 2.601 3.744 3.355 6.125 0.753 2.357 1.129 4.983 1.129 7.875v4.376h-31.353v-7h21.036v-0.803c0-1.459-0.267-2.759-0.801-3.901-0.501-1.154-1.304-2.097-2.31-2.756l-0.024-0.015c-1.045-0.68-2.383-1.020-4.011-1.020-1.385 0-2.577 0.303-3.573 0.911s-1.811 1.459-2.443 2.552c-0.608 1.093-1.069 2.383-1.385 3.865-0.292 1.457-0.437 3.063-0.437 4.812v1.459c0 1.58 0.219 3.037 0.656 4.375 0.461 1.337 1.105 2.491 1.932 3.464 0.833 0.951 1.854 1.714 3.007 2.237l0.055 0.023c1.216 0.535 2.589 0.803 4.12 0.803 1.896 0 3.657-0.365 5.287-1.093 1.652-0.755 3.075-1.885 4.265-3.392l5.104 5.543c-0.827 1.191-1.956 2.333-3.391 3.427-1.409 1.093-3.111 1.993-5.104 2.697-1.993 0.68-4.265 1.021-6.817 1.021zM251.223-57.891c0-0.947-0.147-1.799-0.437-2.552-0.268-0.777-0.779-1.483-1.532-2.115-0.753-0.656-1.811-1.3-3.172-1.933-1.36-0.631-3.123-1.287-5.285-1.968-2.798-0.9-5.067-1.789-7.273-2.795l0.418 0.171c-2.139-0.973-4.035-2.103-5.688-3.392-1.628-1.312-2.916-2.831-3.864-4.556-0.924-1.727-1.385-3.732-1.385-6.016 0-2.212 0.485-4.217 1.459-6.016 0.972-1.823 2.333-3.379 4.083-4.667 1.751-1.312 3.816-2.32 6.197-3.027 2.407-0.704 5.044-1.056 7.912-1.056 3.913 0 7.328 0.704 10.245 2.115 2.916 1.409 5.176 3.341 6.781 5.796 1.628 2.455 2.443 5.263 2.443 8.423h-10.865c0-1.556-0.328-2.917-0.984-4.084-0.632-1.191-1.604-2.127-2.917-2.807-1.288-0.68-2.916-1.021-4.885-1.021-1.896 0-3.475 0.292-4.739 0.875-1.264 0.56-2.212 1.325-2.844 2.297-0.594 0.881-0.948 1.966-0.948 3.134 0 0.026 0 0.052 0.001 0.078l-0-0.004c0 0.9 0.219 1.713 0.656 2.443 0.461 0.729 1.143 1.411 2.041 2.043 0.9 0.631 2.005 1.227 3.319 1.787 1.312 0.559 2.831 1.105 4.557 1.64 2.892 0.875 5.432 1.859 7.619 2.953 2.212 1.093 4.060 2.32 5.543 3.681s2.6 2.905 3.353 4.631c0.753 1.725 1.131 3.683 1.131 5.869 0 2.309-0.449 4.376-1.349 6.199-0.899 1.823-2.199 3.365-3.901 4.629-1.701 1.264-3.731 2.224-6.088 2.88-2.357 0.657-4.995 0.985-7.912 0.985-2.624 0-5.213-0.34-7.765-1.021-2.552-0.704-4.873-1.761-6.963-3.172-2.048-1.403-3.715-3.21-4.917-5.317l-0.041-0.079c-1.24-2.187-1.86-4.776-1.86-7.765h10.975c0 1.653 0.255 3.051 0.765 4.193s1.228 2.067 2.151 2.771c0.948 0.705 2.067 1.215 3.355 1.531 1.312 0.316 2.747 0.475 4.301 0.475 1.896 0 3.452-0.267 4.667-0.803 1.24-0.533 2.152-1.276 2.735-2.224 0.608-0.947 0.912-2.017 0.912-3.208zM268.757-63.323v-0.765c0-2.893 0.413-5.555 1.24-7.985 0.827-2.453 2.029-4.581 3.609-6.38s3.524-3.196 5.833-4.192c2.309-1.021 4.959-1.532 7.948-1.532s5.651 0.511 7.984 1.532c2.333 0.996 4.291 2.393 5.869 4.192 1.605 1.8 2.82 3.925 3.647 6.38 0.827 2.431 1.239 5.093 1.239 7.985v0.765c0 2.867-0.412 5.529-1.239 7.984-0.827 2.431-2.041 4.557-3.647 6.38-1.579 1.8-3.524 3.196-5.833 4.193-2.308 0.996-4.957 1.493-7.948 1.493-2.989 0-5.651-0.497-7.984-1.493-2.309-0.997-4.265-2.395-5.869-4.193-1.58-1.823-2.783-3.949-3.609-6.38-0.827-2.455-1.24-5.116-1.24-7.984zM279.257-64.088v0.765c0 1.653 0.145 3.196 0.437 4.629 0.292 1.435 0.753 2.699 1.385 3.792 0.636 1.044 1.497 1.893 2.518 2.498l0.034 0.018c1.045 0.608 2.321 0.912 3.828 0.912 1.459 0 2.711-0.304 3.756-0.912 1.049-0.616 1.9-1.467 2.498-2.484l0.018-0.032c0.632-1.093 1.093-2.357 1.385-3.791 0.316-1.435 0.473-2.979 0.473-4.631v-0.765c0-1.604-0.157-3.112-0.473-4.521-0.292-1.435-0.767-2.697-1.423-3.792-0.608-1.088-1.459-1.975-2.484-2.606l-0.031-0.017c-1.045-0.632-2.309-0.949-3.792-0.949s-2.747 0.317-3.792 0.949c-1.021 0.631-1.86 1.507-2.516 2.624-0.632 1.093-1.093 2.357-1.385 3.792-0.278 1.321-0.438 2.839-0.438 4.393 0 0.044 0 0.089 0 0.133l-0-0.007zM325.157-100v56h-10.537v-56h10.537zM358.661-53.443v-30.005h10.5v39.448h-9.881l-0.619-9.443zM359.828-61.536l3.099-0.073c0 2.625-0.304 5.067-0.912 7.328-0.607 2.236-1.519 4.181-2.735 5.833-1.206 1.609-2.745 2.903-4.52 3.795l-0.074 0.033c-1.847 0.9-4.023 1.349-6.525 1.349-1.92 0-3.695-0.267-5.324-0.803-1.627-0.566-3.018-1.451-4.156-2.588l0 0c-1.143-1.191-2.041-2.711-2.697-4.557-0.632-1.872-0.948-4.12-0.948-6.745v-25.484h10.5v25.557c0 1.167 0.133 2.151 0.401 2.953 0.291 0.801 0.692 1.459 1.203 1.968 0.511 0.511 1.105 0.876 1.787 1.093 0.674 0.209 1.448 0.33 2.25 0.33 0.029 0 0.058-0 0.087-0l-0.004 0c2.163 0 3.864-0.437 5.104-1.313 1.264-0.875 2.151-2.065 2.661-3.573 0.535-1.531 0.803-3.232 0.803-5.103zM397.997-83.448v7.437h-22.968v-7.437h22.968zM380.716-93.181h10.5v37.296c0 1.143 0.147 2.017 0.439 2.625 0.316 0.607 0.777 1.032 1.385 1.276 0.607 0.219 1.373 0.328 2.296 0.328 0.657 0 1.24-0.024 1.751-0.073 0.535-0.073 0.984-0.147 1.349-0.219l0.036 7.729c-0.9 0.292-1.872 0.523-2.917 0.693-0.993 0.162-2.137 0.254-3.303 0.254-0.056 0-0.112-0-0.168-0.001l0.009 0c-2.309 0-4.327-0.376-6.052-1.129-1.701-0.777-3.015-2.017-3.937-3.719-0.924-1.701-1.387-3.937-1.387-6.708v-38.355zM416.553-83.448v39.448h-10.536v-39.448h10.536zM405.361-93.728c0-1.533 0.535-2.796 1.604-3.793 1.069-0.996 2.503-1.493 4.301-1.493 1.775 0 3.197 0.497 4.267 1.493 1.093 0.997 1.64 2.261 1.64 3.792 0 1.532-0.547 2.795-1.64 3.792-1.069 0.996-2.492 1.495-4.267 1.495-1.799 0-3.232-0.499-4.301-1.495-1.069-0.997-1.604-2.26-1.604-3.792zM425.047-63.323v-0.765c0-2.893 0.413-5.555 1.24-7.985 0.827-2.453 2.029-4.581 3.609-6.38s3.524-3.196 5.833-4.192c2.309-1.021 4.959-1.532 7.948-1.532s5.651 0.511 7.984 1.532c2.333 0.996 4.291 2.393 5.871 4.192 1.604 1.8 2.819 3.925 3.645 6.38 0.827 2.431 1.24 5.093 1.24 7.985v0.765c0 2.867-0.413 5.529-1.24 7.984-0.827 2.431-2.041 4.557-3.645 6.38-1.58 1.8-3.525 3.196-5.833 4.193-2.309 0.996-4.959 1.493-7.948 1.493-2.991 0-5.652-0.497-7.985-1.493-2.308-0.997-4.265-2.395-5.869-4.193-1.58-1.823-2.783-3.949-3.609-6.38-0.827-2.455-1.24-5.116-1.24-7.984zM435.547-64.088v0.765c0 1.653 0.147 3.196 0.437 4.629 0.292 1.435 0.755 2.699 1.387 3.792 0.636 1.045 1.496 1.894 2.518 2.498l0.034 0.018c1.044 0.608 2.32 0.912 3.828 0.912 1.457 0 2.709-0.304 3.755-0.912 1.049-0.616 1.9-1.467 2.498-2.484l0.018-0.032c0.632-1.093 1.093-2.357 1.385-3.791 0.316-1.435 0.473-2.979 0.473-4.631v-0.765c0-1.604-0.157-3.112-0.473-4.521-0.292-1.435-0.765-2.697-1.423-3.792-0.607-1.089-1.459-1.975-2.484-2.607l-0.031-0.017c-1.045-0.632-2.309-0.949-3.792-0.949s-2.747 0.317-3.792 0.949c-1.020 0.631-1.859 1.507-2.515 2.624-0.632 1.093-1.095 2.357-1.387 3.792-0.278 1.324-0.438 2.845-0.438 4.403 0 0.041 0 0.082 0 0.124l-0-0.006zM480.644-75.025v31.025h-10.5v-39.448h9.844l0.656 8.421zM479.113-65.109h-2.844c0-2.917 0.377-5.541 1.131-7.875 0.753-2.359 1.811-4.363 3.172-6.016 1.361-1.677 2.977-2.953 4.848-3.828 1.896-0.9 4.011-1.349 6.344-1.349 1.848 0 3.537 0.267 5.068 0.803 1.556 0.543 2.877 1.419 3.932 2.547l0.005 0.005c1.119 1.167 1.969 2.709 2.552 4.629 0.608 1.92 0.912 4.267 0.912 7.037v25.156h-10.573v-25.193c0-1.749-0.243-3.111-0.729-4.083-0.485-0.973-1.203-1.653-2.151-2.041-0.924-0.413-2.065-0.62-3.427-0.62-1.411 0-2.637 0.28-3.683 0.839-1.038 0.577-1.895 1.363-2.536 2.308l-0.016 0.026c-0.656 0.972-1.155 2.115-1.495 3.427-0.325 1.235-0.511 2.653-0.511 4.115 0 0.040 0 0.081 0 0.121l-0-0.006zM535.039-54.901c0-0.753-0.219-1.433-0.656-2.041s-1.252-1.167-2.443-1.677c-1.167-0.533-2.856-1.020-5.068-1.459-2.18-0.474-4.046-1.038-5.847-1.731l0.27 0.091c-1.701-0.68-3.184-1.495-4.448-2.443-1.192-0.902-2.17-2.019-2.89-3.301l-0.028-0.053c-0.704-1.312-1.057-2.807-1.057-4.484 0-1.653 0.353-3.208 1.057-4.667 0.729-1.459 1.763-2.747 3.099-3.864 1.361-1.143 3.015-2.031 4.959-2.661 1.969-0.657 4.181-0.985 6.636-0.985 3.427 0 6.368 0.547 8.823 1.64 2.479 1.095 4.375 2.601 5.688 4.521 1.336 1.896 2.004 4.060 2.004 6.489h-10.5c0-1.020-0.219-1.932-0.656-2.733-0.413-0.827-1.069-1.471-1.968-1.933-0.876-0.485-2.017-0.728-3.428-0.728-1.167 0-2.175 0.207-3.025 0.619-0.851 0.389-1.507 0.924-1.969 1.605-0.411 0.604-0.656 1.35-0.656 2.153 0 0.012 0 0.024 0 0.036v-0.002c0 0.608 0.121 1.155 0.365 1.64 0.267 0.463 0.692 0.888 1.276 1.277 0.583 0.388 1.336 0.753 2.26 1.093 0.948 0.316 2.115 0.608 3.5 0.875 2.844 0.584 5.384 1.349 7.62 2.297 2.236 0.924 4.011 2.187 5.323 3.792 1.312 1.58 1.968 3.657 1.968 6.233 0 1.751-0.388 3.355-1.167 4.813-0.777 1.459-1.895 2.733-3.353 3.827-1.459 1.071-3.208 1.909-5.251 2.517-2.017 0.583-4.289 0.875-6.817 0.875-3.671 0-6.781-0.656-9.333-1.969-2.528-1.312-4.448-2.977-5.76-4.995-1.288-2.041-1.932-4.132-1.932-6.271h9.952c0.049 1.435 0.413 2.588 1.095 3.464 0.686 0.853 1.586 1.507 2.62 1.883l0.042 0.013c1.093 0.388 2.272 0.583 3.536 0.583 1.361 0 2.492-0.183 3.391-0.547 0.9-0.389 1.58-0.9 2.041-1.531 0.456-0.607 0.73-1.374 0.73-2.204 0-0.020-0-0.040-0-0.060l0 0.003zM-73.389 36h-10.573v-42.947c0-2.991 0.584-5.507 1.751-7.548 1.166-2.029 2.874-3.631 4.927-4.637l0.067-0.030c2.163-1.069 4.727-1.604 7.693-1.604 0.972 0 1.907 0.072 2.807 0.219 0.899 0.121 1.773 0.28 2.625 0.473l-0.109 7.912c-0.417-0.114-0.913-0.204-1.422-0.252l-0.037-0.003c-0.511-0.049-1.107-0.073-1.787-0.073-1.264 0-2.347 0.219-3.245 0.656-0.858 0.4-1.547 1.042-1.994 1.838l-0.011 0.022c-0.461 0.827-0.692 1.835-0.692 3.027v42.947zM-65.515-3.448v7.437h-24.317v-7.437h24.317zM-60.193 16.677v-0.765c0-2.893 0.413-5.555 1.24-7.985 0.827-2.453 2.029-4.581 3.609-6.38s3.524-3.196 5.833-4.192c2.309-1.021 4.959-1.532 7.948-1.532s5.651 0.511 7.984 1.532c2.333 0.996 4.291 2.393 5.871 4.192 1.604 1.8 2.819 3.925 3.645 6.38 0.827 2.431 1.24 5.093 1.24 7.985v0.765c0 2.867-0.413 5.529-1.24 7.984-0.827 2.431-2.041 4.557-3.645 6.38-1.58 1.8-3.525 3.196-5.833 4.193-2.309 0.996-4.96 1.493-7.948 1.493-2.989 0-5.652-0.497-7.985-1.493-2.308-0.997-4.265-2.395-5.869-4.193-1.58-1.823-2.783-3.949-3.609-6.38-0.827-2.455-1.24-5.116-1.24-7.984zM-49.693 15.912v0.765c0 1.653 0.147 3.196 0.437 4.631 0.293 1.433 0.755 2.697 1.387 3.791 0.636 1.045 1.496 1.893 2.518 2.498l0.034 0.018c1.044 0.608 2.32 0.912 3.827 0.912 1.459 0 2.711-0.304 3.756-0.912 1.049-0.616 1.9-1.467 2.498-2.484l0.018-0.032c0.632-1.093 1.093-2.357 1.385-3.792 0.316-1.433 0.473-2.977 0.473-4.629v-0.765c0-1.605-0.157-3.112-0.473-4.521-0.292-1.435-0.765-2.697-1.423-3.792-0.608-1.089-1.459-1.976-2.484-2.608l-0.030-0.018c-1.045-0.631-2.309-0.947-3.792-0.947s-2.747 0.316-3.792 0.947c-1.020 0.632-1.859 1.507-2.516 2.627-0.632 1.093-1.093 2.356-1.385 3.791-0.278 1.322-0.438 2.84-0.438 4.396 0 0.044 0 0.087 0 0.13l-0-0.007zM-4.376 5.156v30.844h-10.501v-39.448h9.88l0.621 8.604zM7.509-3.703l-0.183 9.733c-0.511-0.072-1.131-0.133-1.86-0.181-0.575-0.066-1.247-0.106-1.927-0.109l-0.005-0c-1.483 0-2.771 0.195-3.864 0.583-1.069 0.365-1.969 0.912-2.699 1.64-0.702 0.736-1.25 1.626-1.589 2.614l-0.015 0.050c-0.34 1.045-0.533 2.236-0.583 3.573l-2.115-0.657c0-2.552 0.255-4.897 0.765-7.036 0.511-2.163 1.252-4.047 2.224-5.651 0.996-1.605 2.212-2.844 3.645-3.72 1.435-0.875 3.075-1.312 4.923-1.312 0.583 0 1.179 0.049 1.787 0.147 0.607 0.072 1.105 0.181 1.493 0.328zM41.996-17.083l11.083 24.208 11.084-24.209h11.921l-17.464 33.76v19.324h-11.083v-19.323l-17.5-33.76h11.959zM77.687 16.677v-0.765c0-2.893 0.413-5.555 1.24-7.985 0.827-2.453 2.029-4.581 3.609-6.38s3.524-3.196 5.833-4.192c2.308-1.021 4.959-1.532 7.947-1.532 2.991 0 5.652 0.511 7.985 1.532 2.333 0.996 4.289 2.393 5.869 4.192 1.604 1.8 2.82 3.925 3.647 6.38 0.827 2.431 1.24 5.093 1.24 7.985v0.765c0 2.867-0.413 5.529-1.24 7.984-0.827 2.431-2.043 4.557-3.647 6.38-1.58 1.8-3.524 3.196-5.833 4.193-2.308 0.996-4.959 1.493-7.947 1.493-2.991 0-5.652-0.497-7.985-1.493-2.309-0.997-4.267-2.395-5.869-4.193-1.58-1.823-2.783-3.949-3.609-6.38-0.827-2.455-1.24-5.116-1.24-7.984zM88.187 15.912v0.765c0 1.653 0.147 3.196 0.437 4.631 0.292 1.433 0.753 2.697 1.387 3.791 0.636 1.044 1.496 1.893 2.517 2.498l0.034 0.018c1.045 0.608 2.321 0.912 3.828 0.912 1.459 0 2.711-0.304 3.756-0.912 1.049-0.616 1.9-1.467 2.498-2.484l0.018-0.032c0.631-1.093 1.093-2.357 1.384-3.792 0.316-1.433 0.475-2.977 0.475-4.629v-0.765c0-1.605-0.157-3.112-0.475-4.521-0.291-1.435-0.765-2.697-1.421-3.792-0.608-1.089-1.46-1.976-2.485-2.608l-0.031-0.018c-1.045-0.631-2.308-0.947-3.791-0.947s-2.747 0.316-3.792 0.947c-1.021 0.632-1.86 1.507-2.516 2.627-0.632 1.093-1.093 2.356-1.385 3.791-0.278 1.322-0.438 2.84-0.438 4.396 0 0.044 0 0.087 0 0.13l-0-0.007zM146.336 26.557v-30.005h10.5v39.448h-9.88l-0.62-9.443zM147.503 18.464l3.099-0.073c0 2.625-0.303 5.067-0.911 7.328-0.608 2.236-1.52 4.18-2.735 5.833-1.206 1.609-2.745 2.903-4.52 3.795l-0.073 0.033c-1.848 0.9-4.023 1.349-6.527 1.349-1.92 0-3.693-0.267-5.323-0.803-1.627-0.566-3.018-1.451-4.156-2.588l0 0c-1.143-1.191-2.041-2.711-2.699-4.557-0.632-1.872-0.947-4.12-0.947-6.745v-25.484h10.499v25.557c0 1.167 0.135 2.151 0.401 2.953 0.292 0.801 0.693 1.459 1.204 1.968 0.509 0.511 1.105 0.876 1.785 1.093 0.674 0.209 1.449 0.33 2.251 0.33 0.029 0 0.058-0 0.086-0l-0.004 0c2.164 0 3.865-0.437 5.105-1.313 1.263-0.875 2.151-2.065 2.661-3.573 0.535-1.531 0.801-3.232 0.801-5.103zM176.851 5.157v30.843h-10.5v-39.448h9.88l0.62 8.604zM188.736-3.703l-0.183 9.733c-0.499-0.073-1.139-0.137-1.786-0.178l-0.073-0.004c-0.576-0.066-1.248-0.106-1.928-0.109l-0.005-0c-1.483 0-2.771 0.195-3.864 0.583-1.069 0.365-1.969 0.912-2.697 1.64-0.705 0.731-1.24 1.617-1.605 2.663-0.34 1.045-0.535 2.236-0.583 3.573l-2.115-0.657c0-2.552 0.255-4.897 0.765-7.036 0.511-2.163 1.252-4.047 2.224-5.651 0.997-1.605 2.212-2.844 3.647-3.72 1.433-0.875 3.075-1.312 4.921-1.312 0.583 0 1.179 0.049 1.787 0.147 0.608 0.072 1.105 0.181 1.495 0.328zM236.712 12.703h-13.636l-0.072-7.509h11.448c2.017 0 3.669-0.256 4.957-0.767 1.289-0.533 2.249-1.3 2.881-2.296 0.656-1.021 0.984-2.261 0.984-3.72 0-1.652-0.316-2.989-0.948-4.009-0.608-1.021-1.568-1.763-2.88-2.224-1.288-0.463-2.953-0.693-4.995-0.693h-7.584v44.516h-10.937v-53.084h18.521c3.087 0 5.845 0.293 8.276 0.876 2.455 0.583 4.533 1.471 6.235 2.661 1.657 1.153 2.98 2.675 3.869 4.452l0.031 0.068c0.9 1.8 1.349 3.939 1.349 6.417 0 2.187-0.499 4.205-1.495 6.052-0.972 1.847-2.516 3.355-4.631 4.52-2.089 1.168-4.824 1.812-8.203 1.933l-3.172 2.807zM236.239 36h-16.152l4.267-8.531h11.885c1.92 0 3.487-0.304 4.703-0.912 1.215-0.632 2.115-1.483 2.697-2.552 0.584-1.069 0.876-2.297 0.876-3.683 0-1.556-0.268-2.904-0.803-4.047-0.511-1.143-1.337-2.017-2.479-2.625-1.143-0.632-2.649-0.947-4.521-0.947h-10.536l0.072-7.511h13.125l2.516 2.952c3.232-0.048 5.833 0.523 7.801 1.715 1.993 1.167 3.44 2.685 4.339 4.557 0.874 1.731 1.386 3.773 1.386 5.935 0 0.028-0 0.056-0 0.084l0-0.004c0 3.403-0.741 6.271-2.224 8.604-1.483 2.309-3.657 4.047-6.525 5.213-2.844 1.167-6.32 1.751-10.427 1.751zM287.789 26.557v-30.005h10.5v39.448h-9.881l-0.619-9.443zM288.956 18.464l3.099-0.073c0 2.625-0.304 5.067-0.912 7.328-0.608 2.236-1.519 4.18-2.735 5.833-1.206 1.609-2.745 2.903-4.52 3.795l-0.074 0.033c-1.847 0.9-4.023 1.349-6.525 1.349-1.921 0-3.695-0.267-5.324-0.803-1.627-0.566-3.018-1.451-4.156-2.588l0 0c-1.143-1.191-2.041-2.711-2.697-4.557-0.632-1.872-0.948-4.12-0.948-6.745v-25.484h10.5v25.557c0 1.167 0.133 2.151 0.401 2.953 0.291 0.801 0.692 1.459 1.203 1.968 0.511 0.511 1.105 0.876 1.787 1.093 0.674 0.209 1.448 0.33 2.25 0.33 0.029 0 0.058-0 0.087-0l-0.004 0c2.163 0 3.864-0.437 5.104-1.313 1.264-0.875 2.151-2.065 2.661-3.573 0.535-1.531 0.803-3.232 0.803-5.103zM329.131 25.099c0-0.753-0.219-1.433-0.656-2.041s-1.252-1.167-2.443-1.677c-1.167-0.533-2.856-1.020-5.068-1.459-2.18-0.474-4.046-1.038-5.848-1.731l0.27 0.091c-1.701-0.68-3.184-1.495-4.448-2.443-1.192-0.902-2.17-2.019-2.89-3.301l-0.028-0.053c-0.704-1.312-1.057-2.807-1.057-4.484 0-1.653 0.353-3.208 1.057-4.667 0.729-1.459 1.763-2.747 3.099-3.864 1.361-1.143 3.015-2.031 4.959-2.663 1.969-0.656 4.181-0.984 6.636-0.984 3.427 0 6.368 0.547 8.823 1.64 2.479 1.095 4.375 2.601 5.688 4.521 1.336 1.896 2.004 4.060 2.004 6.489h-10.5c0-1.020-0.219-1.932-0.656-2.733-0.413-0.827-1.069-1.471-1.968-1.933-0.876-0.485-2.017-0.728-3.428-0.728-1.167 0-2.175 0.207-3.025 0.619-0.851 0.389-1.507 0.924-1.969 1.605-0.411 0.604-0.656 1.35-0.656 2.152 0 0.012 0 0.024 0 0.036v-0.002c0 0.608 0.121 1.155 0.365 1.64 0.267 0.463 0.692 0.888 1.276 1.277 0.583 0.388 1.336 0.753 2.26 1.093 0.948 0.316 2.115 0.608 3.5 0.875 2.844 0.584 5.384 1.349 7.62 2.297 2.236 0.924 4.011 2.187 5.323 3.792 1.312 1.58 1.969 3.657 1.969 6.233 0 1.751-0.389 3.355-1.167 4.813-0.779 1.459-1.896 2.733-3.355 3.827-1.459 1.071-3.208 1.909-5.251 2.517-2.017 0.583-4.289 0.875-6.817 0.875-3.669 0-6.781-0.656-9.333-1.969-2.528-1.312-4.448-2.977-5.76-4.995-1.288-2.041-1.932-4.132-1.932-6.271h9.952c0.049 1.435 0.413 2.589 1.095 3.464 0.686 0.853 1.586 1.507 2.62 1.883l0.041 0.013c1.093 0.388 2.272 0.583 3.536 0.583 1.361 0 2.492-0.183 3.391-0.547 0.9-0.389 1.58-0.899 2.041-1.531 0.456-0.607 0.73-1.374 0.73-2.204 0-0.020-0-0.040-0-0.060l0 0.003zM358.733-3.448v39.448h-10.536v-39.448h10.536zM347.541-13.728c0-1.533 0.535-2.796 1.604-3.793 1.069-0.996 2.503-1.493 4.301-1.493 1.775 0 3.197 0.497 4.267 1.493 1.093 0.997 1.64 2.261 1.64 3.792 0 1.532-0.547 2.795-1.64 3.792-1.069 0.996-2.492 1.495-4.267 1.495-1.799 0-3.232-0.499-4.301-1.495-1.069-0.997-1.604-2.26-1.604-3.792zM379.185 4.973v31.027h-10.5v-39.448h9.844l0.656 8.421zM377.655 14.891h-2.844c0-2.917 0.376-5.541 1.129-7.875 0.755-2.359 1.812-4.363 3.172-6.016 1.361-1.677 2.977-2.953 4.849-3.828 1.896-0.9 4.011-1.349 6.344-1.349 1.847 0 3.536 0.267 5.068 0.803 1.555 0.544 2.877 1.419 3.932 2.547l0.005 0.005c1.117 1.167 1.968 2.709 2.552 4.629 0.608 1.92 0.911 4.267 0.911 7.037v25.156h-10.572v-25.193c0-1.749-0.244-3.111-0.729-4.083-0.487-0.973-1.203-1.653-2.151-2.041-0.924-0.413-2.067-0.62-3.428-0.62-1.409 0-2.637 0.28-3.681 0.839-1.038 0.577-1.895 1.363-2.536 2.308l-0.016 0.026c-0.657 0.972-1.155 2.115-1.496 3.427-0.324 1.234-0.51 2.65-0.51 4.11 0 0.042 0 0.084 0 0.126l-0-0.006zM430.408 36.729c-3.063 0-5.809-0.487-8.24-1.459-2.431-0.996-4.496-2.369-6.197-4.12-1.631-1.701-2.941-3.725-3.822-5.964l-0.043-0.124c-0.899-2.333-1.348-4.813-1.348-7.437v-1.459c0-2.989 0.425-5.724 1.276-8.203 0.851-2.48 2.065-4.631 3.645-6.453 1.578-1.788 3.526-3.211 5.729-4.154l0.104-0.040c2.285-0.996 4.861-1.493 7.729-1.493 2.795 0 5.275 0.461 7.437 1.384 2.163 0.924 3.975 2.236 5.432 3.937 1.483 1.701 2.601 3.744 3.355 6.125 0.753 2.357 1.131 4.983 1.131 7.875v4.376h-31.355v-7.001h21.036v-0.803c0-1.459-0.267-2.759-0.801-3.901-0.5-1.154-1.303-2.098-2.31-2.756l-0.024-0.014c-1.045-0.68-2.383-1.020-4.011-1.020-1.385 0-2.576 0.303-3.573 0.911-0.996 0.608-1.811 1.459-2.443 2.552-0.608 1.093-1.069 2.383-1.385 3.865-0.292 1.457-0.437 3.061-0.437 4.812v1.459c0 1.58 0.219 3.037 0.656 4.375 0.463 1.337 1.107 2.492 1.932 3.464 0.833 0.951 1.854 1.714 3.007 2.238l0.055 0.023c1.216 0.535 2.589 0.803 4.12 0.803 1.896 0 3.659-0.365 5.287-1.093 1.653-0.755 3.075-1.884 4.265-3.392l5.104 5.543c-0.827 1.191-1.956 2.333-3.391 3.427-1.409 1.093-3.111 1.993-5.104 2.697-1.993 0.68-4.265 1.021-6.817 1.021zM475.396 25.099c0-0.753-0.219-1.433-0.656-2.041s-1.252-1.167-2.443-1.677c-1.167-0.533-2.856-1.020-5.068-1.459-2.181-0.474-4.047-1.039-5.849-1.731l0.271 0.091c-1.701-0.68-3.184-1.495-4.448-2.443-1.191-0.902-2.169-2.020-2.888-3.301l-0.028-0.054c-0.705-1.312-1.057-2.807-1.057-4.484 0-1.653 0.352-3.208 1.057-4.667 0.729-1.459 1.763-2.747 3.099-3.864 1.361-1.143 3.015-2.031 4.959-2.663 1.968-0.656 4.18-0.984 6.635-0.984 3.428 0 6.369 0.547 8.824 1.64 2.479 1.095 4.375 2.601 5.687 4.521 1.337 1.896 2.005 4.060 2.005 6.489h-10.5c0-1.020-0.219-1.932-0.656-2.733-0.413-0.827-1.069-1.471-1.969-1.933-0.875-0.485-2.017-0.728-3.427-0.728-1.167 0-2.175 0.207-3.025 0.619-0.851 0.389-1.508 0.924-1.969 1.605-0.411 0.604-0.656 1.35-0.656 2.152 0 0.012 0 0.024 0 0.036v-0.002c0 0.608 0.121 1.155 0.364 1.64 0.268 0.463 0.693 0.888 1.276 1.277 0.584 0.388 1.337 0.753 2.261 1.093 0.948 0.316 2.115 0.608 3.5 0.875 2.843 0.584 5.383 1.349 7.619 2.297 2.237 0.924 4.011 2.187 5.324 3.792 1.312 1.58 1.968 3.657 1.968 6.233 0 1.751-0.388 3.355-1.167 4.813-0.777 1.459-1.896 2.733-3.353 3.827-1.459 1.071-3.209 1.909-5.251 2.517-2.017 0.583-4.289 0.875-6.817 0.875-3.671 0-6.781-0.656-9.333-1.969-2.528-1.312-4.448-2.977-5.76-4.995-1.289-2.041-1.933-4.132-1.933-6.271h9.953c0.049 1.435 0.413 2.589 1.093 3.464 0.686 0.853 1.587 1.507 2.621 1.883l0.042 0.013c1.093 0.388 2.272 0.583 3.536 0.583 1.361 0 2.491-0.183 3.391-0.547 0.899-0.389 1.58-0.899 2.041-1.531 0.456-0.607 0.73-1.374 0.73-2.204 0-0.020-0-0.040-0-0.060l0 0.003zM515.244 25.099c0-0.753-0.219-1.433-0.657-2.041-0.437-0.608-1.251-1.167-2.443-1.677-1.167-0.533-2.855-1.020-5.067-1.459-2.181-0.474-4.047-1.038-5.849-1.731l0.27 0.091c-1.701-0.68-3.184-1.495-4.448-2.443-1.192-0.902-2.17-2.019-2.888-3.301l-0.028-0.053c-0.705-1.312-1.057-2.807-1.057-4.484 0-1.653 0.352-3.208 1.057-4.667 0.729-1.459 1.761-2.747 3.099-3.864 1.361-1.143 3.013-2.031 4.959-2.663 1.968-0.656 4.18-0.984 6.635-0.984 3.427 0 6.368 0.547 8.823 1.64 2.48 1.095 4.376 2.601 5.688 4.521 1.337 1.896 2.005 4.060 2.005 6.489h-10.5c0-1.020-0.219-1.932-0.656-2.733-0.413-0.827-1.069-1.471-1.969-1.933-0.875-0.485-2.017-0.728-3.427-0.728-1.167 0-2.176 0.207-3.027 0.619-0.851 0.389-1.507 0.924-1.968 1.605-0.411 0.604-0.656 1.35-0.656 2.152 0 0.012 0 0.024 0 0.036v-0.002c0 0.608 0.121 1.155 0.364 1.64 0.268 0.463 0.693 0.888 1.276 1.277 0.584 0.388 1.337 0.753 2.26 1.093 0.948 0.316 2.115 0.608 3.5 0.875 2.844 0.584 5.384 1.349 7.62 2.297 2.236 0.924 4.011 2.187 5.323 3.792 1.313 1.58 1.969 3.657 1.969 6.233 0 1.751-0.389 3.355-1.167 4.813s-1.896 2.733-3.355 3.827c-1.457 1.071-3.208 1.909-5.249 2.517-2.017 0.583-4.291 0.875-6.817 0.875-3.671 0-6.781-0.656-9.333-1.969-2.528-1.312-4.448-2.977-5.761-4.995-1.288-2.041-1.932-4.132-1.932-6.271h9.953c0.048 1.435 0.413 2.589 1.093 3.464 0.686 0.852 1.586 1.506 2.62 1.883l0.042 0.013c1.027 0.369 2.213 0.583 3.448 0.583 0.031 0 0.063-0 0.094-0l-0.005 0c1.36 0 2.491-0.183 3.391-0.547 0.899-0.389 1.579-0.899 2.041-1.531 0.456-0.608 0.73-1.376 0.73-2.207 0-0.019-0-0.038-0-0.057l0 0.003z"></path>
<path fill="#2e2f42" style="fill: var(--color4, #2e2f42)" opacity="0.4" d="M-741.333-466.667h1920v901.333h-1920z"></path>
<path fill="#fcfcfc" style="fill: var(--color5, #fcfcfc)" d="M-48-360h533.333c2.946 0 5.333 2.388 5.333 5.333v768c0 2.946-2.388 5.333-5.333 5.333h-533.333c-2.946 0-5.333-2.388-5.333-5.333v-768c0-2.946 2.388-5.333 5.333-5.333z"></path>
<path fill="none" stroke="#2e2f42" style="stroke: var(--color4, #2e2f42)" stroke-linejoin="miter" stroke-linecap="butt" stroke-miterlimit="4" stroke-width="1.3333" d="M-16-10h469.333c2.577 0 4.667 2.089 4.667 4.667v42.667c0 2.577-2.089 4.667-4.667 4.667h-469.333c-2.577 0-4.667-2.089-4.667-4.667v-42.667c0-2.577 2.089-4.667 4.667-4.667z"></path>
<path fill="#2e2f42" style="fill: var(--color4, #2e2f42)" d="M20 8h-16c-1.1 0-1.989 0.9-1.989 2l-0.011 12c0 1.1 0.9 2 2 2h16c1.1 0 2-0.9 2-2v-12c0-1.1-0.9-2-2-2zM19.6 12.251l-7.069 4.419c-0.151 0.094-0.334 0.15-0.531 0.15s-0.38-0.056-0.535-0.153l0.004 0.002-7.069-4.419c-0.252-0.15-0.418-0.422-0.418-0.731 0-0.469 0.38-0.849 0.849-0.849 0.174 0 0.337 0.053 0.471 0.143l6.697 4.187 6.7-4.191c0.132-0.088 0.294-0.141 0.468-0.141 0.469 0 0.849 0.38 0.849 0.849 0 0.31-0.166 0.581-0.414 0.729l-0.004 0.002z"></path>
</symbol>
<symbol id="icon-Vector-1" viewBox="0 0 40 32">
<path fill="#f4f4fd" style="fill: var(--color1, #f4f4fd)" d="M33.784 1.020c0.659-0.637 1.558-1.030 2.548-1.030 2.007 0 3.637 1.611 3.668 3.611l0 0.003c0.001 0.028 0.001 0.061 0.001 0.095 0 0.965-0.368 1.844-0.972 2.504l0.003-0.003-19.576 24.616c-0.674 0.728-1.635 1.182-2.702 1.182-0.495 0-0.967-0.098-1.398-0.275l0.024 0.009c-0.477-0.197-0.884-0.473-1.224-0.816l-0-0-12.984-13.052c-0.724-0.677-1.175-1.638-1.175-2.705 0-0.501 0.1-0.98 0.28-1.416l-0.009 0.025c0.564-1.367 1.887-2.312 3.43-2.312 0.018 0 0.035 0 0.053 0l-0.003-0c1.038 0.019 1.967 0.467 2.622 1.174l0.002 0.002 10.276 10.328 17.040-21.832c0.032-0.039 0.065-0.074 0.1-0.108l-0.004-0z"></path>
</symbol>
<symbol id="icon-icon-send-1" viewBox="0 0 38 32">
<path fill="#fff" style="fill: var(--color1, #fff)" d="M38.4 0l-38.4 18 12.272 3.787 18.928-14.787-14.397 16.186 0.011 0.005-0.014-0.005v8.814l6.882-6.691 8.72 2.691 5.998-28z"></path>
</symbol>
  </defs>
</svg>
